eulertext-bold.sfdir
StartChar: exclam
Encoding: 33 33 115
Width: 349
Flags: W
HStem: -12 117 184 21<156 156> 670 20<163 196>
VStem: 107 133
LayerCount: 2
Fore
SplineSet
112 46 m 0
 112 80 140 108 174 108 c 0
 208 108 236 80 236 46 c 0
 236 12 208 -16 174 -16 c 0
 140 -16 112 12 112 46 c 0
217 557 m 2
 175 186 l 1
 156 184 l 1
 124 567 l 2
 122 586 120 608 120 625 c 0
 120 680 146 690 180 690 c 0
 212 690 224 666 224 644 c 0
 224 615 220 586 217 557 c 2
EndSplineSet
EndChar
StartChar: quotedbl
Encoding: 34 34 117
Width: 254
Flags: W
HStem: 432 21<40 40 40 65 183 208 183 183> 675 19
VStem: 10 80<645 668> 151 80<665.5 677.5>
LayerCount: 2
Fore
SplineSet
40 432 m 1
 17 584 l 2
 13 608 10 633 10 657 c 0
 10 679 23 695 51 695 c 0
 66 695 90 689 90 675 c 2
 90 623 l 1
 65 432 l 1
 40 432 l 1
183 432 m 1
 157 625 l 2
 155 639 151 663 151 668 c 0
 151 687 177 692 197 692 c 0
 211 692 231 686 231 673 c 0
 231 657 232 641 230 626 c 2
 208 432 l 1
 183 432 l 1
EndSplineSet
EndChar
StartChar: numbersign
Encoding: 35 35 140
Width: 849
UnlinkRmOvrlpSave: 1
Flags: W
HStem: -3 21G<171 223.601 421 473.601> 211 56<37 731> 461 56<120 814>
DStem2: 166 16 218 -3 0.26968 0.96295<0 725.959> 416 16 468 -3 0.26968 0.96295<0 725.959>
LayerCount: 2
Fore
SplineSet
107 508 m 1
 115 517 l 1
 818 517 l 1
 825 470 l 1
 814 461 l 1
 120 461 l 1
 113 472 l 1
 107 508 l 1
24 258 m 1
 32 267 l 1
 735 267 l 1
 742 220 l 1
 731 211 l 1
 37 211 l 1
 30 222 l 1
 24 258 l 1
659 714 m 1
 666 704 l 1
 468 -3 l 1
 421 2 l 1
 416 16 l 1
 612 715 l 1
 623 718 l 1
 659 714 l 1
409 714 m 1
 416 704 l 1
 218 -3 l 1
 171 2 l 1
 166 16 l 1
 362 715 l 1
 373 718 l 1
 409 714 l 1
EndSplineSet
EndChar
StartChar: dollar
Encoding: 36 36 139
Width: 575
UnlinkRmOvrlpSave: 1
Flags: W
HStem: 4.4248 46.5498<219.339 357.376> 668.475 36.1006<236.537 360.926>
VStem: 91.7998 105.45<505.815 600.377> 278.5 50<-89 789> 412.9 114.949<140.843 225.665>
LayerCount: 2
Fore
SplineSet
328.5 -89 m 1
 278.5 -102 l 1
 278.5 789 l 1
 328.5 808 l 1
 328.5 -89 l 1
439.5 538.325195312 m 1
 423.349609375 543.075195312 l 1
 414.799804688 605.775390625 373.950195312 668.474609375 296.049804688 668.474609375 c 0
 235.25 668.474609375 197.25 624.775390625 197.25 572.525390625 c 0
 197.25 490.825195312 276.099609375 448.075195312 346.400390625 412.924804688 c 0
 457.549804688 355.924804688 527.849609375 310.325195312 527.849609375 220.075195312 c 0
 527.849609375 89.9248046875 370.150390625 4.4248046875 237.150390625 4.4248046875 c 0
 160.200195312 4.4248046875 88.9501953125 37.6748046875 45.25 100.375 c 1
 137.400390625 203.924804688 l 1
 155.450195312 197.275390625 l 1
 155.450195312 126.025390625 206.75 50.974609375 291.299804688 50.974609375 c 0
 359.700195312 50.974609375 412.900390625 107.974609375 412.900390625 167.825195312 c 0
 412.900390625 203.924804688 389.150390625 233.375 361.599609375 259.025390625 c 0
 293.200195312 321.724609375 91.7998046875 372.075195312 91.7998046875 511.724609375 c 0
 91.7998046875 649.474609375 214.349609375 704.575195312 338.799804688 704.575195312 c 0
 435.700195312 704.575195312 500.299804688 679.875 529.75 608.625 c 1
 439.5 538.325195312 l 1
EndSplineSet
EndChar
StartChar: percent
Encoding: 37 37 140
Width: 771
Flags: W
HStem: -12 57<525.417 617.266> 442 57<154.417 246.266>
VStem: 24 72<560.791 668.867> 301 75<566.478 662.293> 395 72<106.791 214.867> 672 75<112.478 208.293>
DStem2: 72 42 111 3 0.635743 0.771901<0 967.592>
LayerCount: 2
Fore
SplineSet
589 347 m 1
 681 324 747 264 747 187 c 0
 747 95 638 -12 535 -12 c 0
 447 -12 395 60 395 127 c 0
 395 229 474 305 589 347 c 1
532 292 m 1
 486 270 467 221 467 178 c 0
 467 121 514 45 586 45 c 0
 666 45 672 96 672 143 c 0
 672 208 603 274 532 292 c 1
218 801 m 1
 310 778 376 718 376 641 c 0
 376 549 267 442 164 442 c 0
 76 442 24 514 24 581 c 0
 24 683 103 759 218 801 c 1
161 746 m 1
 115 724 96 675 96 632 c 0
 96 575 143 499 215 499 c 0
 295 499 301 550 301 597 c 0
 301 662 232 728 161 746 c 1
730 770 m 1
 732 757 l 1
 111 3 l 1
 70 27 l 1
 72 42 l 1
 687 789 l 1
 698 788 l 1
 730 770 l 1
EndSplineSet
EndChar
StartChar: ampersand
Encoding: 38 38 117
Width: 871
Flags: W
HStem: -14 52<308 324> 355 48 662 35<327 441>
VStem: 42 117<188 228> 185 93<487.5 596> 419 113<557 604> 611 75
LayerCount: 2
Fore
SplineSet
431 355 m 1x5f80
 432 404 l 1
 470 402 508 401 546 401 c 0x5f80
 643 401 739 404 836 408 c 1
 833 351 l 1
 799 353 713 355 679 355 c 1
 682 341 685 324 685 309 c 0
 685 236 652 163 594 112 c 1
 626 92 668 71 708 71 c 0
 769 71 796 138 815 184 c 1
 840 178 l 1
 817 94 766 -16 649 -16 c 0xaf80
 592 -16 538 5 496 37 c 1
 431 8 361 -14 287 -14 c 0
 159 -14 42 68 42 184 c 0
 42 272 99 330 213 394 c 1
 196 433 185 467 185 508 c 0
 185 556 196 606 237 641 c 0
 282 679 346 697 410 697 c 0
 472 697 532 667 532 603 c 0
 532 509 430 460 334 414 c 1
 432 273 475 212 567 133 c 1
 600 165 611 210 611 252 c 0
 611 310 568 357 491 357 c 0
 471 357 451 357 431 355 c 1x5f80
468 64 m 1
 373 155 299 251 229 363 c 1
 170 333 159 288 159 237 c 0
 159 139 249 38 367 38 c 0
 396 38 438 50 468 64 c 1
319 445 m 1
 391 481 419 526 419 588 c 0
 419 620 392 662 355 662 c 0
 299 662 278 616 278 576 c 0
 278 530 293 485 319 445 c 1
EndSplineSet
EndChar
StartChar: quotesingle
Encoding: 39 39 118
Width: 250
Flags: W
HStem: 436 21<104 104 104 123> 675 20<112.5 134.5>
VStem: 80 79<659.5 672 656.5 675.5>
LayerCount: 2
Fore
SplineSet
104 436 m 1
 82 629 l 2
 81 641 80 653 80 666 c 0
 80 685 102 695 123 695 c 0
 146 695 159 682 159 662 c 0
 159 651 156 635 154 622 c 2
 123 436 l 1
 104 436 l 1
EndSplineSet
EndChar
StartChar: parenleft
Encoding: 40 40 120
Width: 459
Flags: W
HStem: -186 21<347 347> 718 20<347 347>
VStem: 134 60<239.5 318.5>
LayerCount: 2
Fore
SplineSet
347 -172 m 1
 347 -186 l 1
 227 -169 176 -58 155 38 c 0
 138 118 134 199 134 280 c 0
 134 357 139 435 157 510 c 0
 180 606 225 706 347 738 c 1
 347 719 l 1
 205 657 194 430 194 274 c 0
 194 188 198 102 215 18 c 0
 228 -45 261 -151 347 -172 c 1
EndSplineSet
EndChar
StartChar: parenright
Encoding: 41 41 121
Width: 459
Flags: W
HStem: -187 21<105 105> 715 20<105 105>
VStem: 264 62<230 315.5>
LayerCount: 2
Fore
SplineSet
105 715 m 1
 105 735 l 1
 300 701 326 438 326 272 c 0
 326 188 321 103 302 20 c 0
 280 -75 241 -164 105 -187 c 1
 105 -171 l 1
 159 -152 204 -130 227 -69 c 0
 266 34 264 162 264 276 c 0
 264 355 259 434 241 511 c 0
 223 588 194 678 105 715 c 1
EndSplineSet
EndChar
StartChar: asterisk
Encoding: 42 42 122
Width: 328
Flags: W
HStem: 425 25 692 24
VStem: 145 41
LayerCount: 2
Fore
SplineSet
188 449 m 1
 140 449 l 1
 147 494 149 506 150 557 c 1
 118 534 90 514 60 481 c 1
 36 521 l 1
 71 536 104 553 135 574 c 1
 97 601 63 618 40 629 c 1
 68 662 l 1
 94 638 126 614 149 598 c 1
 149 637 149 662 140 702 c 1
 188 702 l 1
 179 663 177 642 174 602 c 1
 205 624 227 640 250 665 c 1
 280 628 l 1
 252 616 215 601 180 578 c 1
 217 549 250 536 282 524 c 1
 250 488 l 1
 231 508 206 526 174 548 c 1
 176 506 178 492 188 449 c 1
EndSplineSet
EndChar
StartChar: comma
Encoding: 44 44 49
Width: 306
Flags: MW
HStem: -192 21<133 133> 87 20
VStem: 172 63
LayerCount: 2
Fore
SplineSet
133 -192 m 1
 113 -173 l 1
 143 -138 172 -100 172 -61 c 0
 172 -46 168 -31 158 -19 c 2
 104 42 l 1
 97 52 94 64 94 76 c 0
 94 100 122 124 153 124 c 0
 189 124 236 15 236 -27 c 0
 236 -83 177 -145 133 -192 c 1
EndSplineSet
EndChar
StartChar: zero
Encoding: 48 48 38
Width: 550
Flags: MW
HStem: -15 82<274 349.5> 622 92
VStem: 40 94 436 77<282.5 321>
LayerCount: 2
Fore
SplineSet
325 716 m 1
 481 647 513 482 513 344 c 0
 513 221 448 -15 251 -15 c 0
 88 -15 40 160 40 285 c 0
 40 410 73 539 174 626 c 0
 218 664 270 703 325 716 c 1
256 632 m 1
 161 584 133 479 133 384 c 0
 133 328 140 272 159 218 c 0
 183 151 236 67 312 67 c 0
 389 67 436 135 436 274 c 0
 436 368 422 464 365 543 c 0
 338 580 296 621 256 632 c 1
EndSplineSet
EndChar
StartChar: one
Encoding: 49 49 39
Width: 550
Flags: MW
HStem: -9 21<238 238> 694 20
VStem: 236 103
LayerCount: 2
Fore
SplineSet
70 626 m 1
 341 715 l 1
 357 697 l 1
 346 560 342 422 342 284 c 0
 342 200 342 96 345 32 c 1
 238 -9 l 1
 217 5 l 1
 230 123 237 242 237 361 c 0
 237 428 236 494 231 561 c 0
 230 578 215 594 198 594 c 2
 70 594 l 1
 70 626 l 1
EndSplineSet
EndChar
StartChar: two
Encoding: 50 50 40
Width: 550
Flags: MW
HStem: 5 104<191 500> 640 75
VStem: 359 132<488.5 534.5>
LayerCount: 2
Fore
SplineSet
529 109 m 1
 500 5 l 1
 15 5 l 1
 15 25 l 1
 113 106 202 194 276 294 c 0
 322 356 359 427 359 503 c 0
 359 566 332 641 242 641 c 0
 190 641 138 608 94 580 c 1
 76 604 l 1
 139 661 224 715 313 715 c 0
 406 715 491 661 491 569 c 0
 491 408 303 256 186 118 c 0
 185 117 185 115 185 114 c 0
 185 112 188 109 191 109 c 2
 529 109 l 1
EndSplineSet
EndChar
StartChar: three
Encoding: 51 51 41
Width: 550
Flags: MW
HStem: -8 43 358 31 644 64<254 261>
VStem: 369 127<159 266.5>
LayerCount: 2
Fore
SplineSet
281 391 m 1
 281 384 l 1
 420 372 496 319 496 223 c 0
 496 75 353 -8 210 -8 c 0
 142 -8 75 12 25 53 c 1
 82 160 l 1
 101 158 l 1
 117 102 154 32 217 32 c 0
 328 32 369 117 369 201 c 0
 369 332 251 359 133 359 c 1
 133 388 l 1
 218 393 338 433 338 542 c 0
 338 602 293 644 229 644 c 0
 179 644 132 615 89 588 c 1
 72 613 l 1
 135 660 213 708 295 708 c 0
 376 708 455 663 455 582 c 0
 455 488 372 425 281 391 c 1
EndSplineSet
EndChar
StartChar: five
Encoding: 53 53 43
Width: 550
Flags: MW
HStem: -12 44 395 51 591 103<137 442 137 137>
VStem: 83 54<417 591 417 694> 366 129
LayerCount: 2
Fore
SplineSet
475 694 m 1
 480 690 l 1
 442 591 l 1
 137 591 l 1
 137 417 l 1
 147 413 l 1
 193 435 239 446 285 446 c 0
 409 446 495 371 495 255 c 0
 495 105 371 -12 209 -12 c 0
 143 -12 98 -6 18 49 c 1
 18 62 l 1
 67 157 l 1
 85 157 l 1
 104 94 143 30 221 30 c 0
 336 30 368 140 368 230 c 0
 368 305 337 397 224 397 c 0
 188 397 131 372 103 341 c 1
 83 349 l 1
 83 694 l 1
 475 694 l 1
EndSplineSet
EndChar
StartChar: seven
Encoding: 55 55 45
Width: 550
Flags: MW
HStem: -5 21 595 98
VStem: 50 38
LayerCount: 2
Fore
SplineSet
251 20 m 1
 132 -15 l 1
 113 4 l 1
 165 214 289 378 444 582 c 0
 446 585 447 588 447 592 c 1
 444 596 438 596 433 596 c 0
 338 595 243 595 148 595 c 1
 105 593 105 577 87 480 c 1
 50 480 l 1
 50 696 l 1
 197 693 381 693 547 693 c 1
 547 676 l 1
 466 560 391 442 328 318 c 0
 282 226 258 120 251 20 c 1
EndSplineSet
EndChar
StartChar: eight
Encoding: 56 56 46
Width: 550
Flags: MW
HStem: -5 47 665 50
VStem: 42 106<160.5 207.5> 402 103<140.5 196>
LayerCount: 2
Fore
SplineSet
249 330 m 1
 176 297 148 259 148 196 c 0
 148 125 201 37 282 37 c 0
 364 37 402 91 402 157 c 0
 402 235 316 291 249 330 c 1
356 393 m 1
 449 331 505 290 505 206 c 0
 505 75 370 -5 237 -5 c 0
 128 -5 42 59 42 161 c 0
 42 254 103 300 212 353 c 1
 212 360 l 1
 152 407 82 460 82 533 c 0
 82 629 195 685 291 720 c 1
 401 705 483 665 483 586 c 0
 483 509 418 448 356 403 c 1
 356 393 l 1
315 422 m 1
 358 451 381 502 381 550 c 0
 381 620 319 661 252 667 c 1
 209 651 187 611 187 570 c 0
 187 520 260 460 315 422 c 1
EndSplineSet
EndChar
StartChar: equal
Encoding: 61 61 125
Width: 582
Flags: W
HStem: 164 50<33 549 22 559> 299 50<33 549 22 559>
LayerCount: 2
Fore
SplineSet
549 299 m 1
 22 299 l 1
 33 349 l 1
 559 349 l 1
 549 299 l 1
549 164 m 1
 22 164 l 1
 33 214 l 1
 559 214 l 1
 549 164 l 1
EndSplineSet
EndChar
StartChar: at
Encoding: 64 64 144
Width: 708
VWidth: 772
Flags: W
HStem: -81 65<243.39 303> 62 55<241.5 371.115> 64 60<465 549.3> 394 27<318.025 409.472>
VStem: 175 86<149.08 324.889> 437 78<155.482 375.092>
LayerCount: 2
Fore
SplineSet
437 304 m 0xdc
 437 341 427 394 366 394 c 0
 278 394 261 296 261 233 c 0
 261 185 278 117 341 117 c 0
 376 117 406 134 430 154 c 1
 434 185 437 256 437 304 c 0xdc
516 418 m 1
 527 411 l 1
 520 347 515 284 515 220 c 0
 515 157 515 124 540 124 c 0
 593 124 616 217 619 263 c 0
 632 440 471 553 302 521 c 0
 250 511 202 488 161 455 c 1
 91 369 61 223 128 107 c 0
 166 41 239 -9 330 -16 c 1
 346 -31 l 1
 296 -81 l 1
 190 -73 106 -2 63 73 c 0
 6 171 15 293 71 385 c 0
 124 472 226 565 336 586 c 0
 512 620 698 483 684 297 c 0
 679 234 652 181 613 142 c 1
 585 112 542 64 482 64 c 0xbc
 448 64 439 88 435 110 c 1
 425 114 l 1
 384 87 335 62 283 62 c 0
 200 62 175 147 175 206 c 0
 175 352 242 421 360 421 c 0
 401 421 437 410 471 391 c 1
 516 418 l 1
EndSplineSet
EndChar
StartChar: A
Encoding: 65 65 54
Width: 830
Flags: MW
HStem: -15 78 268 51 648 39
VStem: 3 818<9 42>
LayerCount: 2
Fore
SplineSet
131 10 m 1
 5 -1 l 1
 3 9 l 1
 138 210 262 415 373 628 c 0
 374 629 374 631 374 633 c 0
 374 634 373 637 371 637 c 2
 277 649 l 1
 277 687 l 1
 501 687 l 1
 612 314 l 2
 640 220 688 62 756 62 c 0
 773 62 795 66 814 70 c 1
 821 42 l 1
 763 16 698 -14 640 -14 c 0
 580 -14 556 40 543 86 c 2
 492 268 l 1
 241 268 l 1
 207 204 165 97 131 10 c 1
461 320 m 2
 464 320 470 322 470 325 c 0
 470 328 470 336 469 338 c 2
 404 543 l 2
 402 549 397 551 395 551 c 0
 393 551 389 548 386 543 c 2
 281 335 l 2
 279 332 279 330 279 326 c 0
 279 323 286 320 290 320 c 2
 461 320 l 2
EndSplineSet
EndChar
StartChar: B
Encoding: 66 66 55
Width: 726
Flags: MW
HStem: -2 42<282 345> 347 38<262 334> 661 42<309 354 354 359>
VStem: 132 133 496 145<156.5 227>
LayerCount: 2
Fore
SplineSet
421 379 m 1
 421 368 l 1
 559 356 641 302 641 207 c 0
 641 46 491 -2 345 -2 c 2
 101 -2 l 1
 101 14 l 1
 138 38 137 54 137 84 c 2
 137 566 l 2
 137 621 155 643 40 676 c 1
 40 697 l 1
 46 703 l 1
 354 703 l 2
 523 703 617 655 617 550 c 0
 617 449 513 398 421 379 c 1
262 117 m 2
 262 68 261 40 303 40 c 0
 414 40 496 104 496 209 c 0
 496 245 478 277 450 304 c 0
 410 341 326 345 262 347 c 1
 262 117 l 2
262 385 m 1
 406 385 481 443 481 542 c 0
 481 637 402 661 316 661 c 0
 302 661 287 659 275 656 c 0
 261 652 262 634 262 604 c 2
 262 385 l 1
EndSplineSet
EndChar
StartChar: C
Encoding: 67 67 56
Width: 789
Flags: MW
HStem: -18 61<400 506> 666 45<427.5 510.5>
VStem: 86 147<289.5 380.5>
LayerCount: 2
Fore
SplineSet
751 585 m 1
 657 499 l 1
 641 502 l 1
 618 588 566 666 455 666 c 0
 284 666 233 484 233 360 c 0
 233 219 306 43 494 43 c 0
 575 43 652 72 722 106 c 1
 743 81 l 1
 659 22 559 -18 453 -18 c 0
 179 -18 86 154 86 331 c 0
 86 430 112 531 191 603 c 0
 268 673 373 711 482 711 c 0
 608 711 692 677 751 585 c 1
EndSplineSet
EndChar
StartChar: D
Encoding: 68 68 57
Width: 828
Flags: W
HStem: -1 43<237.524 448.62> 655 43<225.455 475.691> 668 30<8 67.9348>
VStem: 99 125<55.3525 647.5> 632 154<242.152 513.41>
LayerCount: 2
Fore
SplineSet
67 -1 m 1xd8
 67 13 l 1
 89 42 99 43 99 106 c 2
 99 535 l 2
 99 565 99 602 92 625 c 1
 83 660 39 662 2 668 c 1
 2 692 l 1
 8 698 l 1xb8
 423 698 l 2
 718 698 786 545 786 384 c 0
 786 284 760 184 681 112 c 0
 593 32 471 -1 349 -1 c 2
 67 -1 l 1xd8
224 185 m 1
 223 149 226 114 231 79 c 0
 236 45 279 42 315 42 c 0
 397 42 484 62 543 117 c 0
 614 182 632 288 632 378 c 0
 632 628 476 655 317 655 c 0xd8
 292 655 261 655 239 651 c 0
 222 648 224 629 224 575 c 2
 224 185 l 1
EndSplineSet
EndChar
StartChar: E
Encoding: 69 69 58
Width: 641
Flags: MW
HStem: 3 62 344 45 645 51
VStem: 109 123
LayerCount: 2
Fore
SplineSet
595 76 m 1
 605 68 l 1
 579 -8 l 1
 465 -1 351 0 237 0 c 0
 205 0 157 0 142 4 c 1
 127 12 109 32 109 51 c 2
 109 480 l 2
 109 524 109 594 105 612 c 0
 93 657 47 661 11 666 c 1
 11 689 l 1
 18 696 l 1
 179 696 383 696 496 709 c 1
 509 704 l 1
 509 642 l 1
 497 631 l 1
 420 636 270 645 269 645 c 0
 233 645 234 622 234 595 c 2
 234 415 l 2
 234 406 242 389 254 389 c 0
 316 389 471 405 474 406 c 0
 475 406 483 401 487 398 c 1
 487 340 l 1
 418 343 338 343 262 343 c 0
 239 343 234 330 234 316 c 0
 234 251 234 174 243 123 c 1
 248 82 269 61 310 61 c 0
 325 61 595 76 595 76 c 1
EndSplineSet
EndChar
StartChar: F
Encoding: 70 70 59
Width: 525
Flags: MW
HStem: -12 21<110 110> 343 46<248.5 286 243.5 295> 642 56
VStem: 106 131
LayerCount: 2
Fore
SplineSet
238 23 m 1
 110 -12 l 1
 98 -4 l 1
 105 165 111 333 111 501 c 0
 111 551 111 606 106 623 c 0
 95 661 49 666 12 670 c 1
 12 690 l 1
 20 698 l 1
 181 698 419 698 494 706 c 1
 494 638 l 1
 487 630 l 1
 382 636 277 644 261 644 c 0
 244 644 232 641 232 609 c 2
 232 415 l 2
 232 402 238 389 249 389 c 0
 323 389 400 401 474 406 c 1
 487 394 l 1
 487 340 l 1
 428 343 333 343 257 343 c 0
 240 343 232 339 232 316 c 0
 232 315 237 121 238 23 c 1
EndSplineSet
EndChar
StartChar: G
Encoding: 71 71 60
Width: 780
Flags: W
HStem: -14 53<365.786 572.424> 266 37<366 549.077> 495 21G<612 651.556> 661 48<339.692 514.214>
VStem: 58 146<218.836 470.373> 575 126<43.5938 250.01>
LayerCount: 2
Fore
SplineSet
366 303 m 1
 706 316 l 1
 703 277 701 238 701 198 c 0
 701 144 704 90 708 36 c 1
 609 10 508 -14 405 -14 c 0
 315 -14 224 9 160 68 c 0
 83 138 58 237 58 334 c 0
 58 436 90 539 170 612 c 0
 247 682 357 709 464 709 c 0
 571 709 675 683 727 585 c 1
 630 495 l 1
 612 503 l 1
 587 582 535 661 433 661 c 0
 256 661 204 486 204 353 c 0
 204 204 275 39 481 39 c 0
 504 39 528 39 551 42 c 0
 585 45 575 96 575 146 c 2
 575 221 l 1
 569 266 529 255 366 266 c 1
 366 303 l 1
EndSplineSet
EndChar
StartChar: H
Encoding: 72 72 61
Width: 857
Flags: MW
HStem: -2 37 339 49<281.5 579 290 577> 662 36
VStem: 134 134 607 134
LayerCount: 2
Fore
SplineSet
613 681 m 1
 743 711 l 1
 753 701 l 1
 741 586 737 471 737 356 c 0
 737 93 711 38 824 32 c 1
 824 8 l 1
 818 -7 l 1
 622 -7 l 1
 599 14 l 1
 609 113 613 212 613 312 c 0
 613 337 595 339 577 339 c 2
 289 339 l 2
 274 339 260 334 260 311 c 0
 260 217 262 123 266 30 c 1
 141 -6 l 1
 139 -3 134 2 134 3 c 0
 139 122 139 240 139 359 c 2
 139 612 l 2
 139 645 73 658 40 665 c 1
 40 688 l 1
 48 698 l 1
 262 698 l 1
 270 690 l 1
 265 595 259 496 259 413 c 0
 259 394 274 388 290 388 c 2
 579 388 l 2
 613 388 613 399 613 413 c 2
 613 681 l 1
EndSplineSet
EndChar
StartChar: I
Encoding: 73 73 62
Width: 379
Flags: W
HStem: 1 28<6 38.375 315.133 345> 666 30<11 39.2 305.882 334>
VStem: 110 125<57.558 645.902>
LayerCount: 2
Fore
SplineSet
236 618 m 2
 235 367 l 2
 235 280 235 158 238 106 c 0
 240 80 251 50 281 44 c 2
 345 30 l 1
 345 1 l 1
 6 1 l 1
 6 29 l 1
 80 45 l 2
 96 48 108 65 108 81 c 0
 110 124 110 275 110 372 c 0
 110 455 110 541 104 622 c 0
 103 635 91 648 76 651 c 2
 7 666 l 1
 7 692 l 1
 11 696 l 1
 334 696 l 1
 338 692 l 1
 338 665 l 1
 260 649 l 2
 244 646 236 632 236 618 c 2
EndSplineSet
EndChar
StartChar: J
Encoding: 74 74 63
Width: 458
Flags: MW
HStem: -168 21 670 35<82 92>
VStem: 179 128
LayerCount: 2
Fore
SplineSet
305 513 m 2
 305 167 l 2
 305 9 285 -37 217 -92 c 0
 169 -131 114 -164 62 -192 c 1
 45 -164 l 1
 173 -83 180 -16 180 128 c 2
 180 559 l 2
 180 583 180 609 177 631 c 0
 172 667 111 670 73 670 c 1
 73 697 l 1
 82 705 l 1
 404 705 l 1
 412 697 l 1
 412 672 l 1
 390 667 345 658 344 658 c 0
 298 645 305 581 305 513 c 2
EndSplineSet
EndChar
StartChar: K
Encoding: 75 75 64
Width: 690
Flags: W
HStem: -12 28G<108 179.905 509.5 605.78> 665 36<19 81.7118>
VStem: 108 140<27.7385 319.406> 113 124<34.5938 324 387 641.048>
LayerCount: 2
Fore
SplineSet
249 387 m 1xd0
 545 702 l 1
 651 702 l 1
 651 687 l 1
 350 407 l 2
 347 405 345 399 345 397 c 0
 345 393 347 388 348 388 c 2
 697 70 l 1
 697 54 l 1
 559 -5 l 1
 460 108 357 219 247 324 c 1
 237 324 l 1xd0
 237 226 238 128 248 30 c 1
 118 -12 l 1
 108 -2 l 1xe0
 112 111 113 225 113 338 c 0
 113 430 113 584 111 614 c 0
 108 648 59 655 15 665 c 1
 15 691 l 1
 19 701 l 1
 245 701 l 1
 252 694 l 1
 242 591 237 490 237 387 c 1
 249 387 l 1xd0
EndSplineSet
EndChar
StartChar: L
Encoding: 76 76 65
Width: 621
Flags: MW
HStem: -1 57 666 36
VStem: 126 132
LayerCount: 2
Fore
SplineSet
575 75 m 1
 588 66 l 1
 567 -5 l 1
 477 0 256 0 100 0 c 1
 100 17 l 1
 109 27 124 40 127 50 c 0
 130 62 130 96 130 119 c 2
 130 565 l 2
 130 588 129 606 125 629 c 1
 117 663 74 669 42 671 c 1
 42 694 l 1
 50 702 l 1
 345 702 l 1
 353 694 l 1
 353 667 l 1
 257 657 255 640 255 544 c 2
 255 253 l 2
 255 170 246 53 282 53 c 0
 385 53 540 71 575 75 c 1
EndSplineSet
EndChar
StartChar: M
Encoding: 77 77 66
Width: 1158
Flags: MW
HStem: -15 73 667 33
VStem: 870 115
LayerCount: 2
Fore
SplineSet
244 533 m 2
 185 26 l 1
 101 -2 l 1
 87 3 l 1
 162 360 l 2
 179 442 200 543 200 606 c 0
 200 639 174 665 100 669 c 1
 100 693 l 1
 108 701 l 1
 333 701 l 1
 398 520 468 341 556 167 c 0
 557 165 560 163 562 163 c 0
 564 163 567 165 569 167 c 0
 629 265 731 445 731 446 c 0
 775 528 817 610 844 698 c 1
 1006 700 l 1
 1012 688 l 1
 993 668 l 2
 983 658 983 642 983 595 c 2
 983 449 l 2
 983 360 988 272 996 184 c 0
 1003 112 1006 54 1063 54 c 0
 1081 54 1106 56 1121 58 c 1
 1125 31 l 1
 1109 31 969 -16 928 -16 c 0
 889 -16 870 11 870 38 c 0
 870 124 870 544 847 544 c 0
 845 544 842 539 838 533 c 0
 730 355 640 183 544 -1 c 1
 470 -1 l 1
 404 181 341 354 261 532 c 0
 259 536 255 539 252 539 c 0
 248 539 244 536 244 533 c 2
EndSplineSet
EndChar
StartChar: N
Encoding: 78 78 67
Width: 922
Flags: MW
HStem: -3 21<149 149> 666 33
VStem: 150 53 708 61
LayerCount: 2
Fore
SplineSet
231 526 m 1
 231 34 l 1
 149 -3 l 1
 136 5 l 1
 146 191 155 377 155 562 c 0
 155 585 154 599 150 614 c 1
 139 646 82 661 52 669 c 1
 52 691 l 1
 60 699 l 1
 259 699 l 1
 396 529 544 366 696 206 c 1
 691 208 l 1
 691 686 l 1
 772 713 l 1
 792 699 l 1
 776 520 764 342 764 163 c 0
 764 110 765 57 769 5 c 1
 694 5 l 1
 219 533 l 2
 216 537 212 539 210 539 c 0
 206 539 203 535 231 526 c 1
EndSplineSet
EndChar
StartChar: O
Encoding: 79 79 68
Width: 882
Flags: MW
HStem: -15 46<362.5 503> 680 40<429.5 531.5 429.5 540>
VStem: 72 138<297.5 384> 679 143<256 394.5>
LayerCount: 2
Fore
SplineSet
72 330 m 0
 72 438 108 553 193 630 c 0
 270 700 370 720 489 720 c 0
 574 720 661 699 722 644 c 0
 795 577 822 483 822 391 c 0
 822 99 617 -15 389 -15 c 0
 309 -15 229 7 172 59 c 0
 98 127 72 233 72 330 c 0
210 366 m 0
 210 229 271 31 454 31 c 0
 630 31 679 187 679 325 c 0
 679 464 633 680 447 680 c 0
 285 680 210 506 210 366 c 0
EndSplineSet
EndChar
StartChar: P
Encoding: 80 80 69
Width: 665
Flags: MW
HStem: -6 21<143 143> 304 37 664 35<322.5 380.5>
VStem: 136 133 475 142<509.5 560.5>
LayerCount: 2
Fore
SplineSet
270 30 m 1
 143 -6 l 1
 131 4 l 1
 138 156 139 307 139 459 c 0
 139 514 139 592 135 623 c 1
 127 659 82 665 49 669 c 1
 49 691 l 1
 57 699 l 1
 402 699 l 2
 562 699 617 633 617 540 c 0
 617 479 599 419 551 375 c 0
 503 330 422 313 350 307 c 0
 322 305 265 315 265 282 c 0
 265 281 268 114 270 30 c 1
265 361 m 0
 265 349 278 341 292 341 c 0
 408 341 475 424 475 522 c 0
 475 599 426 664 335 664 c 0
 310 664 263 671 263 641 c 0
 263 640 264 454 265 361 c 0
EndSplineSet
EndChar
StartChar: Q
Encoding: 81 81 70
Width: 919
Flags: MW
HStem: -195 42 -7 33 668 46<444.5 542 444.5 544.5>
VStem: 86 142<286.5 372.5> 696 139<271.5 422.5 261 429.5>
LayerCount: 2
Fore
SplineSet
820 -141 m 1
 829 -170 l 1
 770 -188 707 -197 644 -197 c 0
 529 -197 446 -102 379 -20 c 1
 167 -11 86 159 86 318 c 0
 86 427 115 538 201 616 c 0
 278 686 390 714 499 714 c 0
 585 714 673 691 735 635 c 0
 810 567 835 470 835 375 c 0
 835 147 716 39 551 -3 c 1
 545 -17 l 1
 582 -75 638 -153 714 -153 c 0
 752 -153 787 -147 820 -141 c 1
464 26 m 0
 657 26 696 195 696 348 c 0
 696 511 627 668 462 668 c 0
 285 668 228 488 228 352 c 0
 228 221 286 26 464 26 c 0
EndSplineSet
EndChar
StartChar: R
Encoding: 82 82 71
Width: 714
Flags: MW
HStem: -10 21<547 547> 325 40 662 39<310.5 362.5>
VStem: 142 124 470 142<528 579.5>
LayerCount: 2
Fore
SplineSet
264 325 m 1
 275 41 l 1
 138 -8 l 1
 129 1 l 1
 138 156 142 311 142 466 c 0
 142 519 142 602 139 624 c 0
 134 664 81 668 48 670 c 1
 48 696 l 1
 53 701 l 1
 374 701 l 2
 527 701 612 655 612 552 c 0
 612 504 599 451 561 417 c 0
 520 380 468 365 414 351 c 1
 410 340 l 1
 496 239 608 106 661 57 c 1
 664 41 l 1
 547 -10 l 1
 526 -8 l 1
 277 323 l 2
 276 324 272 325 264 325 c 1
264 366 m 1
 310 366 392 381 422 412 c 0
 455 446 470 490 470 536 c 0
 470 623 405 662 320 662 c 0
 301 662 271 665 268 639 c 0
 267 635 264 458 264 366 c 1
EndSplineSet
EndChar
StartChar: S
Encoding: 83 83 72
Width: 655
Flags: MW
HStem: -14 49<295.5 353> 685 38<324.5 386>
VStem: 130 111<541 592.5> 468 119
LayerCount: 2
Fore
SplineSet
496 548 m 1
 479 553 l 1
 470 619 427 685 345 685 c 0
 281 685 241 639 241 584 c 0
 241 498 324 453 398 416 c 0
 515 356 589 308 589 213 c 0
 589 76 423 -14 283 -14 c 0
 202 -14 127 21 81 87 c 1
 178 196 l 1
 197 189 l 1
 197 114 251 35 340 35 c 0
 412 35 468 95 468 158 c 0
 468 196 443 227 414 254 c 0
 342 320 130 373 130 520 c 0
 130 665 259 723 390 723 c 0
 492 723 560 697 591 622 c 1
 496 548 l 1
EndSplineSet
EndChar
StartChar: T
Encoding: 84 84 73
Width: 543
Flags: MW
HStem: -10 23 645 67
VStem: 260 121
LayerCount: 2
Fore
SplineSet
257 496 m 2
 257 629 l 2
 257 643 246 648 232 647 c 2
 31 637 l 1
 22 646 l 1
 22 704 l 1
 30 712 l 1
 126 710 222 703 318 703 c 0
 418 703 518 710 618 714 c 1
 628 704 l 1
 628 654 l 1
 617 645 l 1
 606 645 474 649 406 649 c 0
 391 649 385 647 385 634 c 2
 385 496 l 2
 385 341 392 185 402 30 c 1
 258 -11 l 1
 249 1 l 1
 254 166 257 331 257 496 c 2
EndSplineSet
EndChar
StartChar: U
Encoding: 85 85 74
Width: 859
Flags: MW
HStem: -10 63 668 34
VStem: 125 127<222.5 297> 582 128
LayerCount: 2
Fore
SplineSet
577 671 m 1
 717 717 l 1
 732 709 l 1
 724 672 718 630 716 589 c 0
 710 452 710 315 710 180 c 0
 710 111 703 63 779 63 c 0
 798 63 819 65 836 67 c 1
 837 49 l 1
 829 39 l 1
 672 -5 l 2
 659 -9 645 -10 632 -10 c 0
 600 -10 589 15 583 39 c 1
 572 44 l 1
 502 16 428 -8 353 -8 c 0
 295 -8 234 0 193 38 c 0
 136 90 125 185 125 260 c 0
 125 334 132 436 132 524 c 0
 132 561 132 584 128 622 c 1
 121 658 66 664 28 670 c 1
 28 696 l 1
 33 704 l 1
 262 704 l 1
 272 693 l 1
 256 560 252 431 252 297 c 0
 252 125 328 53 450 53 c 0
 497 53 544 70 584 88 c 1
 584 283 584 560 577 671 c 1
EndSplineSet
EndChar
StartChar: V
Encoding: 86 86 75
Width: 745
Flags: MW
HStem: -5 21<337 337> 666 42
VStem: 27 780<669 698 696 698>
LayerCount: 2
Fore
SplineSet
688 697 m 1
 804 712 l 1
 807 698 l 1
 725 590 664 510 588 360 c 0
 532 250 476 140 434 25 c 1
 337 -5 l 1
 326 1 l 1
 155 520 l 2
 142 560 123 616 108 638 c 0
 91 663 37 669 27 669 c 1
 27 696 l 1
 35 703 l 1
 102 703 171 705 238 710 c 1
 289 518 340 345 417 178 c 0
 417 177 421 171 424 171 c 0
 429 171 434 178 436 182 c 2
 559 437 l 2
 598 519 643 611 688 697 c 1
EndSplineSet
EndChar
StartChar: W
Encoding: 87 87 76
Width: 1126
Flags: MW
HStem: -16 21<726 726> 667 33
VStem: 13 1165
LayerCount: 2
Fore
SplineSet
1178 699 m 1
 1178 684 l 1
 1044 471 935 246 831 19 c 1
 726 -16 l 1
 712 -4 l 1
 595 522 l 2
 594 529 592 536 587 536 c 0
 580 536 577 530 574 523 c 0
 498 354 427 193 362 20 c 1
 262 -12 l 1
 248 -2 l 1
 248 -5 130 528 91 633 c 0
 82 657 25 670 14 670 c 1
 14 692 l 1
 22 701 l 1
 220 701 l 1
 252 524 295 348 343 174 c 0
 344 170 347 168 350 168 c 0
 354 168 357 174 359 177 c 0
 443 343 520 503 581 678 c 1
 684 699 l 1
 691 694 l 1
 716 516 768 334 812 151 c 0
 813 146 817 136 821 136 c 0
 825 136 828 139 832 147 c 0
 912 316 1002 508 1058 683 c 1
 1178 699 l 1
EndSplineSet
EndChar
StartChar: X
Encoding: 88 88 77
Width: 652
Flags: W
HStem: -1 9G<-11 94 473.5 590.333> 666 33<-3 46.9074> 673 27<650.671 665>
DStem2: 346 448 88 623 0.546413 -0.837516<-286.89 0 116.078 234.164 396.969 468.328>
LayerCount: 2
Fore
SplineSet
360 448 m 1xc0
 552 684 l 1
 665 700 l 1
 665 673 l 1xa0
 563 604 463 485 383 387 c 1
 421 323 461 260 506 199 c 0
 548 141 616 55 665 41 c 1
 665 23 l 1
 497 -13 l 1
 450 50 366 182 304 282 c 1
 288 282 l 1
 238 224 146 100 94 19 c 1
 -11 -1 l 1
 -11 25 l 1
 268 338 l 1
 88 623 l 1
 69 648 26 657 -11 666 c 1
 -11 690 l 1
 -3 699 l 1
 198 705 l 1
 243 617 295 531 346 448 c 1
 360 448 l 1xc0
EndSplineSet
EndChar
StartChar: Y
Encoding: 89 89 78
Width: 584
Flags: MW
HStem: -4 21<294 294> 668 38
VStem: 275 133
LayerCount: 2
Fore
SplineSet
682 695 m 1
 399 323 l 1
 399 224 403 129 408 28 c 1
 294 -4 l 1
 276 5 l 1
 278 107 282 296 282 297 c 0
 281 298 187 488 141 576 c 0
 125 607 106 648 74 657 c 2
 28 669 l 1
 28 695 l 1
 36 704 l 1
 219 704 l 1
 226 687 319 503 369 402 c 0
 371 398 377 396 381 396 c 0
 386 396 389 397 393 401 c 1
 579 690 l 1
 681 707 l 1
 682 695 l 1
EndSplineSet
EndChar
StartChar: Z
Encoding: 90 90 79
Width: 734
Flags: MW
HStem: -2 66 641 53
VStem: 29 674<0 67 24 67>
LayerCount: 2
Fore
SplineSet
477 629 m 1
 467 643 l 1
 343 640 186 635 121 630 c 1
 113 638 l 1
 113 702 l 1
 122 709 l 1
 299 699 479 697 654 697 c 1
 654 670 l 1
 502 478 378 283 238 84 c 0
 237 83 236 81 236 80 c 0
 236 71 246 64 256 64 c 0
 400 65 544 72 688 80 c 1
 703 67 l 1
 676 -11 l 1
 549 0 245 0 29 0 c 1
 29 24 l 1
 188 223 328 424 477 629 c 1
EndSplineSet
EndChar
StartChar: bracketleft
Encoding: 91 91 113
Width: 257
Flags: W
HStem: -130 32 710 31
VStem: 36 50<-100 699 -100 741 -100 741>
LayerCount: 2
Fore
SplineSet
226 712 m 1
 86 699 l 1
 86 -100 l 1
 226 -100 l 1
 226 -119 l 1
 162 -119 99 -124 36 -130 c 1
 36 741 l 1
 82 736 162 736 226 736 c 1
 226 712 l 1
EndSplineSet
EndChar
StartChar: bracketright
Encoding: 93 93 114
Width: 257
Flags: W
HStem: -132 31 708 31
VStem: 158 50<-92 700 700 700>
LayerCount: 2
Fore
SplineSet
158 700 m 1
 14 709 l 1
 14 733 l 1
 79 733 152 733 208 739 c 1
 208 -132 l 1
 144 -125 79 -124 14 -124 c 1
 14 -103 l 1
 158 -92 l 1
 158 700 l 1
EndSplineSet
EndChar
StartChar: asciicircum
Encoding: 94 94 114
Width: 590
Flags: W
HStem: 516 192
DStem2: 298 708 295 646 0.756916 -0.653512<38.247 224.701>
LayerCount: 2
Fore
SplineSet
298 708 m 1
 481 550 l 1
 436 524 l 1
 295 646 l 1
 128 516 l 1
 101 528 l 1
 298 708 l 1
EndSplineSet
EndChar
StartChar: underscore
Encoding: 95 95 142
Width: 893
Flags: W
HStem: -119 50<0 893>
LayerCount: 2
Fore
SplineSet
893 -119 m 1
 0 -119 l 1
 0 -69 l 1
 893 -69 l 1
 893 -119 l 1
EndSplineSet
EndChar
StartChar: grave
Encoding: 96 96 142
Width: 590
Flags: W
LayerCount: 2
Fore
SplineSet
310 511 m 1
 330 546 l 5
 220 709 l 1
 207 711 l 1
 148 665 l 1
 310 511 l 1
EndSplineSet
EndChar
StartChar: a
Encoding: 97 97 81
Width: 585
Flags: W
HStem: -15 78<146 296.471> -12 85<438.5 548> 460 38<248.29 364.733>
VStem: 58 113<120.036 343.907> 401 103<119.105 424.281>
LayerCount: 2
Fore
SplineSet
506 493 m 1xb8
 520 484 l 1
 511 393 504 302 504 211 c 0
 504 122 504 73 537 73 c 0
 559 73 587 97 607 115 c 1
 626 94 l 1
 586 46 529 -12 461 -12 c 0x78
 416 -12 403 24 399 54 c 1
 386 59 l 1
 334 20 268 -15 200 -15 c 0
 92 -15 58 108 58 191 c 0
 58 393 141 498 300 498 c 0
 354 498 402 482 446 455 c 1
 506 493 l 1xb8
401 331 m 0
 401 383 390 460 309 460 c 0
 194 460 171 321 171 230 c 0
 171 161 192 63 276 63 c 0xb8
 321 63 364 90 393 117 c 1
 399 161 401 263 401 331 c 0
EndSplineSet
EndChar
StartChar: b
Encoding: 98 98 82
Width: 613
Flags: W
HStem: -14 52<244.257 355.335> 419 74<301.397 457> 646 31<6 53> 685 20G<59.7143 209>
VStem: 91 118<418 632.096> 93 109<90.5051 381.852 418 575.143> 438 119<178.249 359.86>
LayerCount: 2
Fore
SplineSet
209 693 m 1xfa
 202 418 l 1
 213 415 l 1
 265 458 328 493 399 493 c 0
 515 493 557 386 557 296 c 0
 557 213 528 129 461 72 c 0
 402 22 329 -14 248 -14 c 0
 168 -14 93 27 93 161 c 2
 93 507 l 2xf6
 93 546 91 572 91 602 c 0
 91 632 57 641 -3 646 c 1
 -3 668 l 1
 6 677 l 1
 194 705 l 1
 209 693 l 1xfa
202 367 m 1
 199 233 l 1
 199 150 214 38 297 38 c 0
 407 38 438 151 438 238 c 0
 438 311 425 419 319 419 c 0
 276 419 235 391 202 367 c 1
EndSplineSet
EndChar
StartChar: c
Encoding: 99 99 83
Width: 469
Flags: W
HStem: -10 69<163 340.883> 456 40<225.493 327.227>
VStem: 46 118<141.022 321.798> 363 109<374.815 418.93>
LayerCount: 2
Fore
SplineSet
472 379 m 1
 380 324 l 1
 363 331 l 1
 363 393 340 456 275 456 c 0
 188 456 164 317 164 248 c 0
 164 173 195 59 300 59 c 0
 357 59 414 89 465 128 c 1
 477 125 l 1
 487 111 l 1
 419 43 331 -10 229 -10 c 0
 97 -10 46 94 46 193 c 0
 46 338 117 496 316 496 c 0
 391 496 466 469 472 379 c 1
EndSplineSet
EndChar
StartChar: d
Encoding: 100 100 84
Width: 673
Flags: MW
HStem: -11 21G<480 533.5> 456 39<300.5 356 262 384>
VStem: 84 123<199 281.5> 439 105<130.5 143 130.5 362>
LayerCount: 2
Fore
SplineSet
357 678 m 1
 548 699 l 1
 557 693 l 1
 549 577 545 535 545 436 c 2
 544 143 l 2
 544 118 551 75 580 75 c 0
 599 75 634 98 651 112 c 1
 668 90 l 1
 624 45 564 -11 503 -11 c 0
 457 -11 441 29 438 65 c 1
 383 27 315 -10 246 -10 c 0
 122 -10 84 106 84 193 c 0
 84 370 183 495 341 495 c 0
 371 495 403 493 432 483 c 1
 439 488 l 1
 439 581 l 2
 439 636 409 636 343 645 c 1
 343 669 l 1
 357 678 l 1
439 113 m 1
 439 362 l 2
 439 440 407 456 361 456 c 0
 240 456 207 329 207 236 c 0
 207 162 227 63 320 63 c 0
 368 63 406 87 439 113 c 1
EndSplineSet
EndChar
StartChar: e
Encoding: 101 101 85
Width: 614
Flags: MW
HStem: -16 68<306.5 345> 455 40<290 376.5>
VStem: 87 120<173.5 213 260 277.5> 435 123<338.5 369.5>
LayerCount: 2
Fore
SplineSet
220 258 m 0
 405 317 435 315 435 344 c 0
 435 395 409 455 344 455 c 0
 236 455 207 335 207 262 c 0
 207 258 210 257 214 257 c 0
 216 257 218 258 220 258 c 0
522 101 m 1
 533 82 l 1
 467 35 386 -16 304 -16 c 0
 247 -16 188 -2 148 35 c 0
 100 79 87 143 87 204 c 0
 87 351 178 495 367 495 c 0
 461 495 558 459 558 349 c 0
 558 328 548 318 529 312 c 0
 528 312 314 246 207 213 c 1
 207 133 258 52 355 52 c 0
 410 52 461 77 507 105 c 1
 522 101 l 1
EndSplineSet
EndChar
StartChar: f
Encoding: 102 102 86
Width: 356
Flags: W
HStem: -10 21G<111 205.857> 400 44<14 109 230 341> 644 42<251.173 318.401>
VStem: 118 103<128.107 391 454 568.164>
LayerCount: 2
Fore
SplineSet
221 392 m 1
 221 266 230 128 237 18 c 1
 128 -10 l 1
 111 -1 l 1
 115 102 118 261 118 391 c 1
 109 400 l 1
 -2 400 l 1
 -7 408 l 1
 3 437 l 1
 14 444 l 1
 110 444 l 1
 118 454 l 1
 128 668 251 686 308 686 c 0
 327 686 391 679 425 609 c 1
 355 558 l 1
 339 565 l 1
 339 613 305 644 284 644 c 0
 264 644 236 617 227 571 c 0
 221 543 221 517 221 454 c 1
 230 445 l 1
 356 445 l 1
 362 435 l 1
 353 409 l 1
 341 400 l 1
 230 400 l 1
 221 392 l 1
EndSplineSet
Substitution2: "f.alt-1" f.alt
EndChar
StartChar: g
Encoding: 103 103 87
Width: 598
Flags: W
HStem: -242 50<191.943 320.877> -19 77<128.5 299.346> 454 41<235.403 365.174>
VStem: 51 116<121.805 342.044> 396 105<-67.884 55 92.2 426.304>
LayerCount: 2
Fore
SplineSet
501 127 m 0
 501 51 498 5 486 -45 c 0
 456 -172 329 -242 206 -242 c 0
 149 -242 82 -213 46 -171 c 1
 106 -92 l 1
 127 -92 l 1
 158 -146 200 -192 251 -192 c 0
 290 -192 327 -174 347 -147 c 0
 390 -89 394 -54 396 55 c 1
 333 14 269 -19 195 -19 c 0
 62 -19 51 128 51 214 c 0
 51 386 144 495 298 495 c 0
 351 495 390 483 430 456 c 1
 492 481 l 1
 505 477 l 1
 501 405 501 388 501 127 c 0
396 114 m 1
 396 373 l 2
 396 429 344 454 308 454 c 0
 208 454 167 371 167 269 c 0
 167 189 176 58 276 58 c 0
 320 58 370 80 396 114 c 1
EndSplineSet
EndChar
StartChar: h
Encoding: 104 104 88
Width: 665
Flags: W
HStem: -8 96<482.5 593> 477 20G<401.5 482>
VStem: 125 105<321 371.5> 427 106<156.5 185> 432 109<332 355>
LayerCount: 2
Fore
SplineSet
230 380 m 1xe8
 230 262 230 90 238 25 c 1
 133 -7 l 1
 120 4 l 1
 125 110 125 218 125 325 c 0
 125 418 124 588 120 604 c 0
 111 635 97 637 30 641 c 1
 30 668 l 1
 42 676 l 1
 228 696 l 1
 230 686 l 1
 230 433 l 1
 239 426 l 1
 298 460 369 497 434 497 c 0
 530 497 541 413 541 348 c 0xe8
 541 316 533 252 533 188 c 0
 533 125 543 88 579 88 c 0
 607 88 628 106 647 123 c 1
 662 112 l 1
 664 100 l 1
 626 56 572 -8 518 -8 c 0
 447 -8 427 42 427 155 c 0xf0
 427 215 432 265 432 310 c 0
 432 400 405 428 347 428 c 0
 311 428 262 404 230 380 c 1xe8
EndSplineSet
EndChar
StartChar: i
Encoding: 105 105 89
Width: 367
Flags: MW
HStem: -13 85<197 289> 420 73<84 185> 562 123
VStem: 130 105
LayerCount: 2
Fore
SplineSet
117 621 m 0
 117 657 147 687 183 687 c 0
 219 687 249 657 249 621 c 0
 249 585 219 555 183 555 c 0
 147 555 117 585 117 621 c 0
348 119 m 1
 365 103 l 1
 365 92 l 1
 327 45 269 -13 209 -13 c 0
 185 -13 162 -3 149 15 c 0
 122 50 130 101 130 254 c 2
 130 371 l 1
 128 392 123 420 95 420 c 0
 73 420 50 405 26 388 c 1
 10 410 l 1
 56 447 117 493 175 493 c 0
 195 493 215 486 225 470 c 0
 233 457 237 445 237 386 c 0
 237 346 234 305 234 265 c 0
 234 143 224 72 277 72 c 0
 301 72 328 99 348 119 c 1
EndSplineSet
EndChar
StartChar: j
Encoding: 106 106 90
Width: 363
Flags: W
HStem: 473 20G<154.5 222.5> 555 132<175 211>
VStem: 127 132<603 639> 145 101
LayerCount: 2
Fore
SplineSet
127 621 m 0xe0
 127 657 157 687 193 687 c 0
 229 687 259 657 259 621 c 0
 259 585 229 555 193 555 c 0
 157 555 127 585 127 621 c 0xe0
38 389 m 1
 22 411 l 1
 67 445 128 493 181 493 c 0
 264 493 251 417 251 256 c 0
 251 191 251 81 246 27 c 0
 234 -85 112 -180 9 -246 c 1
 -18 -227 l 1
 63 -166 135 -101 142 0 c 0
 144 32 145 78 145 125 c 0xd0
 145 275 161 420 107 420 c 0
 85 420 58 405 38 389 c 1
EndSplineSet
EndChar
StartChar: k
Encoding: 107 107 91
Width: 611
Flags: MW
VStem: 133 105<294 540>
LayerCount: 2
Fore
SplineSet
243 253 m 1
 243 25 l 1
 146 -6 l 1
 130 3 l 1
 133 93 133 243 133 363 c 2
 133 540 l 2
 133 562 132 584 127 605 c 0
 120 636 104 638 30 645 c 1
 30 674 l 1
 40 681 l 1
 241 698 l 1
 249 693 l 1
 248 654 241 418 238 294 c 1
 252 294 l 1
 340 366 416 451 511 515 c 1
 570 478 l 1
 569 466 l 1
 483 420 398 370 322 312 c 1
 383 224 482 89 520 89 c 0
 547 89 566 103 591 125 c 1
 613 101 l 1
 508 -19 499 -2 480 -2 c 0
 400 -2 320 176 252 262 c 1
 243 253 l 1
EndSplineSet
EndChar
StartChar: l
Encoding: 108 108 92
Width: 369
Flags: MW
HStem: -7 83 649 49
VStem: 123 111
LayerCount: 2
Fore
SplineSet
237 685 m 1
 229 231 l 2
 229 218 228 203 228 188 c 0
 228 117 232 78 266 78 c 0
 294 78 320 101 340 123 c 1
 352 123 l 1
 368 107 l 1
 330 56 270 -7 205 -7 c 0
 120 -7 120 62 120 124 c 0
 120 200 124 276 124 358 c 0
 124 414 124 472 123 527 c 0
 122 556 122 597 118 614 c 0
 110 649 70 647 28 649 c 1
 28 672 l 1
 40 680 l 1
 224 697 l 1
 237 685 l 1
EndSplineSet
EndChar
StartChar: m
Encoding: 109 109 93
Width: 989
Flags: MW
HStem: -7 21G<803.5 852> 413 20G 472 20G<137.5 189>
VStem: 135 104 441 103 752 108<293.5 311>
LayerCount: 2
Fore
SplineSet
240 383 m 1
 240 264 241 64 246 26 c 1
 145 -8 l 1
 128 0 l 1
 132 92 135 247 135 290 c 0
 135 357 136 419 96 419 c 0
 73 419 46 404 24 389 c 1
 5 413 l 1
 51 449 110 492 165 492 c 0
 213 492 233 463 236 428 c 1
 246 425 l 1
 300 458 374 495 439 495 c 0
 486 495 529 471 543 423 c 1
 558 418 l 1
 619 453 681 494 748 494 c 0
 830 494 860 456 860 315 c 0
 860 272 856 196 856 154 c 0
 856 124 862 91 897 91 c 0
 922 91 943 100 963 114 c 1
 973 114 l 1
 984 93 l 1
 941 52 882 -7 822 -7 c 0
 785 -7 748 13 748 114 c 0
 748 165 752 232 752 283 c 0
 752 339 756 431 680 431 c 0
 637 431 584 396 545 369 c 1
 545 250 546 93 551 26 c 1
 452 -9 l 1
 436 -1 l 1
 440 98 440 193 440 289 c 0
 440 345 444 433 371 433 c 0
 325 433 276 406 240 383 c 1
EndSplineSet
EndChar
StartChar: n
Encoding: 110 110 94
Width: 671
Flags: MW
HStem: -10 98<502 593.5> 477 20G<134.5 188>
VStem: 126 105<319.5 328> 435 105<257.5 269>
LayerCount: 2
Fore
SplineSet
231 378 m 1
 231 261 234 59 241 28 c 1
 131 -4 l 1
 119 3 l 1
 122 101 126 295 126 296 c 0
 126 360 128 423 88 423 c 0
 68 423 31 398 18 390 c 1
 0 414 l 1
 46 451 107 497 162 497 c 0
 214 497 225 462 228 428 c 1
 240 424 l 1
 298 460 372 494 439 494 c 0
 550 494 540 404 540 273 c 0
 540 242 537 202 537 170 c 0
 537 113 544 106 553 98 c 0
 560 91 570 88 581 88 c 0
 606 88 628 100 648 114 c 1
 660 114 l 1
 671 97 l 1
 627 53 568 -10 512 -10 c 0
 492 -10 472 -3 458 10 c 0
 428 38 435 94 435 240 c 0
 435 298 435 383 408 408 c 0
 393 422 372 424 352 424 c 0
 322 424 268 398 231 378 c 1
EndSplineSet
EndChar
StartChar: o
Encoding: 111 111 95
Width: 673
Flags: MW
HStem: -11 41<289.5 392 279 393.5> 446 40<287.5 378 268 387>
VStem: 79 129<200.5 277.5 200.5 305.5> 461 129<212 303 171 310.5>
LayerCount: 2
Fore
SplineSet
208 234 m 0
 208 167 230 30 328 30 c 0
 456 30 461 156 461 268 c 0
 461 353 434 446 340 446 c 0
 235 446 208 321 208 234 c 0
79 233 m 0
 79 378 190 486 346 486 c 0
 410 486 476 473 523 431 c 0
 569 389 590 332 590 274 c 0
 590 68 467 -11 320 -11 c 0
 259 -11 195 -3 151 37 c 0
 95 88 79 162 79 233 c 0
EndSplineSet
EndChar
StartChar: p
Encoding: 112 112 96
Width: 663
Flags: MW
HStem: 0 42<324.5 392.5 324.5 418> 414 74<395.5 406.5>
VStem: 134 105<154.5 163 163 328> 473 120<213.5 268.5>
LayerCount: 2
Fore
SplineSet
246 -217 m 1
 125 -247 l 1
 113 -238 l 1
 119 -75 134 12 134 297 c 0
 134 359 136 413 95 413 c 0
 77 413 50 396 32 385 c 1
 18 409 l 1
 64 445 121 488 177 488 c 0
 221 488 240 460 242 425 c 1
 250 421 l 1
 301 454 367 488 424 488 c 0
 558 488 593 380 593 284 c 0
 593 143 502 0 334 0 c 0
 304 0 274 4 248 21 c 1
 246 15 l 1
 246 -217 l 1
266 69 m 0
 285 52 311 42 338 42 c 0
 447 42 473 148 473 230 c 0
 473 307 457 414 356 414 c 0
 315 414 273 389 239 366 c 1
 239 163 l 2
 239 129 242 91 266 69 c 0
EndSplineSet
EndChar
StartChar: q
Encoding: 113 113 97
Width: 672
Flags: MW
HStem: -60 21G 408 40
VStem: 102 115<199.5 271> 440 104
LayerCount: 2
Fore
SplineSet
557 -213 m 1
 448 -247 l 1
 440 -240 l 1
 440 54 l 1
 431 59 l 1
 372 21 308 -13 238 -13 c 0
 117 -13 102 100 102 202 c 0
 102 340 171 495 355 495 c 0
 397 495 441 484 476 464 c 1
 535 538 l 1
 556 535 l 1
 550 433 545 331 545 228 c 0
 545 97 549 -85 557 -213 c 1
440 112 m 1
 440 349 l 2
 440 416 404 455 348 455 c 0
 240 455 217 324 217 235 c 0
 217 164 233 61 324 61 c 0
 372 61 410 89 440 112 c 1
EndSplineSet
EndChar
StartChar: r
Encoding: 114 114 98
Width: 497
Flags: MW
HStem: 469 20G<144.5 199.5>
VStem: 134 105<241 324>
LayerCount: 2
Fore
SplineSet
253 33 m 1
 147 -6 l 1
 127 1 l 1
 130 101 134 293 134 294 c 0
 134 354 137 415 98 415 c 0
 79 415 49 400 30 385 c 1
 14 408 l 1
 59 443 117 489 172 489 c 0
 227 489 238 451 238 402 c 1
 249 397 l 1
 289 438 342 486 400 486 c 0
 457 486 479 441 479 396 c 1
 404 338 l 1
 391 346 l 1
 385 374 367 401 334 401 c 0
 256 401 239 313 239 257 c 0
 239 225 246 109 253 33 c 1
EndSplineSet
EndChar
StartChar: s
Encoding: 115 115 99
Width: 499
Flags: MW
HStem: -15 37<192 252 192 257.5> 457 37<218.5 264.5>
VStem: 71 95 313 112<85.5 104>
LayerCount: 2
Fore
SplineSet
419 426 m 1
 346 352 l 1
 331 356 l 1
 324 403 296 457 233 457 c 0
 188 457 168 429 168 385 c 0
 168 327 242 294 293 271 c 0
 385 229 425 204 425 138 c 0
 425 33 307 -15 208 -15 c 0
 142 -15 82 0 35 52 c 1
 98 146 l 1
 113 145 l 1
 128 88 154 22 230 22 c 0
 274 22 313 50 313 95 c 0
 313 113 304 128 290 141 c 0
 239 188 71 219 71 331 c 0
 71 445 167 494 270 494 c 0
 329 494 390 484 419 426 c 1
EndSplineSet
EndChar
StartChar: t
Encoding: 116 116 100
Width: 437
Flags: MW
HStem: -11 21G<197 278.5> 400 45<260 370 260 385>
VStem: 147 105<191 233 233 391 391 391>
LayerCount: 2
Fore
SplineSet
143 588 m 2
 250 624 l 1
 265 617 l 2
 265 616 257 515 253 453 c 1
 260 445 l 1
 385 445 l 1
 392 435 l 1
 382 409 l 1
 370 400 l 1
 260 400 l 1
 252 392 l 1
 252 233 l 2
 252 149 252 73 307 73 c 0
 334 73 366 93 388 113 c 1
 398 113 l 1
 410 98 l 1
 372 48 312 -11 245 -11 c 0
 149 -11 147 79 147 163 c 2
 147 391 l 1
 138 400 l 1
 28 400 l 1
 22 408 l 1
 32 437 l 1
 43 444 l 1
 139 444 l 1
 146 453 l 1
 145 505 143 587 143 588 c 2
EndSplineSet
EndChar
StartChar: u
Encoding: 117 117 101
Width: 670
Flags: MW
HStem: -8 21G<222.5 268.5 487.5 536.5> 476 20G<131 188>
VStem: 119 107 435 105
LayerCount: 2
Fore
SplineSet
430 466 m 1
 533 500 l 1
 545 490 l 1
 541 399 540 309 540 217 c 0
 540 189 526 90 581 90 c 0
 601 90 627 105 649 118 c 1
 659 118 l 1
 667 98 l 1
 624 55 562 -8 511 -8 c 0
 464 -8 445 23 439 61 c 1
 429 67 l 1
 370 36 296 -8 241 -8 c 0
 204 -8 170 1 144 25 c 0
 111 55 115 109 115 204 c 0
 115 227 116 249 116 269 c 0
 116 346 123 420 77 420 c 0
 60 420 34 404 16 393 c 1
 2 418 l 1
 47 451 106 496 156 496 c 0
 220 496 232 451 232 401 c 0
 232 360 225 287 225 226 c 0
 225 125 237 66 321 66 c 0
 367 66 401 88 435 114 c 1
 436 153 436 194 436 236 c 0
 436 314 434 393 430 466 c 1
EndSplineSet
EndChar
StartChar: v
Encoding: 118 118 102
Width: 486
Flags: W
HStem: -12 21G<149 211> 412 75<24 80.5773>
VStem: 383 96<295.088 408.5>
LayerCount: 2
Fore
SplineSet
-50 386 m 1
 -65 411 l 1
 -18 444 43 487 94 487 c 0
 108 487 124 484 135 475 c 0
 187 433 203 113 262 113 c 0
 272 113 283 118 289 124 c 0
 343 171 383 230 383 302 c 0
 383 340 364 385 339 416 c 1
 339 433 l 1
 414 490 l 1
 427 490 l 1
 463 468 479 428 479 389 c 0
 479 321 443 260 403 204 c 0
 311 77 223 8 199 -12 c 1
 156 -12 l 1
 142 51 116 161 95 245 c 0
 79 308 70 412 19 412 c 0
 5 412 -28 400 -50 386 c 1
EndSplineSet
EndChar
StartChar: w
Encoding: 119 119 103
Width: 919
Flags: MW
HStem: -13 21<183 183> 407 84
VStem: 788 102<265.5 407>
LayerCount: 2
Fore
SplineSet
231 382 m 2
 266 142 l 1
 276 139 l 1
 346 244 413 351 469 463 c 1
 523 493 l 1
 536 491 l 1
 561 365 594 241 645 121 c 0
 647 116 650 109 654 109 c 0
 660 109 669 111 674 115 c 0
 732 160 788 229 788 302 c 0
 788 342 764 388 741 423 c 1
 741 436 l 1
 823 496 l 1
 839 494 l 1
 867 463 890 427 890 387 c 0
 890 285 775 161 687 68 c 0
 663 43 621 -7 588 -7 c 0
 567 -7 556 24 550 43 c 2
 456 336 l 1
 446 336 l 1
 381 224 307 115 245 2 c 1
 183 -13 l 1
 172 -7 l 1
 168 67 159 140 150 213 c 0
 139 302 129 408 78 408 c 0
 54 408 26 400 6 388 c 1
 -8 407 l 1
 38 443 99 490 155 490 c 0
 178 490 194 479 210 465 c 0
 222 454 223 432 231 382 c 2
EndSplineSet
EndChar
StartChar: x
Encoding: 120 120 104
Width: 550
Flags: MW
HStem: -12 89<358 451> 418 71
VStem: -23 554<103 410>
LayerCount: 2
Fore
SplineSet
464 489 m 1
 501 453 l 1
 501 443 l 1
 421 396 352 332 293 267 c 1
 333 190 392 77 438 77 c 0
 464 77 491 98 510 117 c 1
 520 117 l 1
 531 103 l 1
 497 53 442 -12 381 -12 c 0
 335 -12 312 24 290 58 c 1
 223 182 l 1
 213 182 l 1
 166 126 125 62 96 -4 c 1
 80 -8 l 1
 32 17 l 1
 32 24 l 1
 81 94 137 165 199 227 c 1
 177 276 140 341 130 358 c 0
 115 384 93 418 64 418 c 0
 45 418 15 400 -5 386 c 1
 -23 410 l 1
 18 446 70 491 123 491 c 0
 142 491 161 489 176 476 c 0
 218 438 247 367 272 310 c 1
 278 310 l 1
 332 372 388 434 452 489 c 1
 464 489 l 1
EndSplineSet
EndChar
StartChar: y
Encoding: 121 121 105
Width: 670
Flags: MW
HStem: -232 50<265.5 307.5> -11 21G<179.5 265> 469 20G<145.5 183.5>
VStem: 125 110 443 105<255.5 267.5 99 316>
LayerCount: 2
Fore
SplineSet
552 487 m 1
 548 415 548 398 548 137 c 0
 548 61 545 15 533 -35 c 0
 505 -155 369 -232 246 -232 c 0
 189 -232 122 -203 86 -161 c 1
 146 -82 l 1
 167 -82 l 1
 198 -136 240 -182 291 -182 c 0
 405 -182 432 -76 435 54 c 1
 425 58 l 1
 371 23 294 -11 236 -11 c 0
 123 -11 125 82 125 176 c 0
 125 227 131 279 131 330 c 0
 131 362 132 417 87 417 c 0
 70 417 45 400 29 386 c 1
 11 411 l 1
 54 448 116 489 175 489 c 0
 192 489 208 482 220 471 c 0
 231 461 238 446 238 384 c 0
 238 325 233 270 233 208 c 0
 233 101 251 61 324 61 c 0
 365 61 420 92 436 103 c 1
 441 161 443 224 443 287 c 0
 443 345 441 403 434 456 c 1
 534 491 l 1
 552 487 l 1
EndSplineSet
EndChar
StartChar: z
Encoding: 122 122 106
Width: 545
Flags: MW
HStem: -8 102 396 96
VStem: 26 498
LayerCount: 2
Fore
SplineSet
471 492 m 1
 492 474 l 1
 429 396 356 312 286 240 c 1
 172 116 l 1
 176 107 l 1
 243 107 311 93 376 93 c 0
 432 93 469 128 499 171 c 1
 524 155 l 1
 478 69 l 2
 454 23 431 -8 369 -8 c 0
 278 -8 189 17 98 17 c 0
 71 17 53 -1 41 -14 c 1
 31 -14 l 1
 17 -2 l 1
 118 135 255 248 359 377 c 1
 352 377 344 376 337 376 c 0
 270 376 194 398 154 398 c 0
 123 398 94 365 75 342 c 1
 49 354 l 1
 118 468 l 2
 128 484 151 492 172 492 c 0
 235 492 304 462 377 462 c 0
 412 462 443 473 471 492 c 1
EndSplineSet
EndChar
StartChar: bar
Encoding: 124 124 134
Width: 241
Flags: W
VStem: 95 50<-159 -159 -159 719 719 719>
LayerCount: 2
Fore
SplineSet
145 -159 m 1
 95 -172 l 1
 95 719 l 1
 145 738 l 1
 145 -159 l 1
EndSplineSet
EndChar
StartChar: braceright
Encoding: 125 125 133
Width: 362
Flags: W
HStem: -177 21 263 24 717 17
VStem: -239 61
LayerCount: 2
Fore
SplineSet
25 -178 m 1
 25 -161 l 1
 55 -161 86 -160 115 -152 c 0
 175 -135 176 -41 176 30 c 0
 176 126 180 237 275 273 c 1
 275 274 l 1
 135 325 194 495 168 636 c 0
 153 715 88 712 25 712 c 1
 25 730 l 1
 72 730 140 730 164 723 c 0
 262 693 223 538 238 363 c 1
 247 289 300 285 359 285 c 1
 359 259 l 1
 325 259 280 256 260 236 c 0
 232 208 232 103 232 34 c 0
 232 -181 193 -178 25 -178 c 1
EndSplineSet
EndChar
StartChar: asciitilde
Encoding: 126 126 131
Width: 623
Flags: W
HStem: 178 41<469 501.5> 305 42<131 151>
VStem: 25 574<240 275>
LayerCount: 2
Fore
SplineSet
353 214 m 2
 242 277 l 2
 214 293 184 304 151 305 c 1
 104 305 80 282 44 228 c 1
 25 240 l 1
 52 290 97 347 165 347 c 0
 215 347 271 317 318 291 c 2
 401 245 l 2
 426 231 454 219 484 219 c 0
 527 219 559 253 578 288 c 1
 599 275 l 1
 575 227 531 178 472 178 c 0
 429 178 388 194 353 214 c 2
EndSplineSet
EndChar
StartChar: sterling
Encoding: 163 163 144
Width: 785
UnlinkRmOvrlpSave: 1
Flags: W
HStem: -12 101<433.527 617.328> 0 21G<26 60> 102 81<167 248.747> 320 40<108 229 280 439.25> 670 40<414.431 547.5>
VStem: 26 27<13 40.361> 712 29<194.047 277>
LayerCount: 2
Fore
SplineSet
234 360 m 9x3e
 229 320 l 17
 186 318 143 317 100 316 c 1
 108 366 l 1
 158 365 187 363 234 360 c 9x3e
280 362 m 1
 462 368 l 1
 458 315 l 1
 362 318 328 319 260 320 c 1
 280 362 l 1
218 411 m 1
 242 566 296 710 515 710 c 0
 580 710 651 685 651 624 c 0
 651 588 626 549 585 549 c 0
 476 549 564 670 465 670 c 0
 419 670 390 633 377 595 c 0
 348 510 344 424 313 340 c 0
 292 283 237 234 166 192 c 1
 167 183 l 1
 324 183 411 89 552 89 c 0
 591 89 630 96 659 121 c 0
 700 157 712 246 712 277 c 1
 741 278 l 1
 741 209 l 2
 741 103 655 -12 529 -12 c 0xbe
 377 -12 271 102 149 102 c 0
 86 102 67 54 53 0 c 1x7e
 26 13 l 1
 29 81 44 125 113 180 c 1
 166 228 197 266 218 411 c 1
EndSplineSet
EndChar
StartChar: currency
Encoding: 164 164 238
Width: 500
Flags: W
HStem: 102 76<178.215 321.743> 447 77<178.052 322.99>
VStem: 39 77<240.161 384.472> 384 77<240.271 385.436>
DStem2: 79 531 32 484 0.708922 -0.705287<0 71.3744 479.211 549.96> 32 141 77 96 0.702554 0.711631<0 70.5388 481.519 550.403>
LayerCount: 2
Fore
SplineSet
32 141 m 1
 81 190 l 1
 51 228 39 263 39 313 c 0
 39 365 51 401 81 435 c 1
 32 484 l 1
 79 531 l 1
 127 483 l 1
 164 511 204 524 251 524 c 0
 297 524 334 512 371 484 c 1
 419 533 l 1
 468 484 l 1
 422 436 l 1
 449 401 461 363 461 314 c 0
 461 265 449 227 421 189 c 1
 467 141 l 1
 422 96 l 1
 375 145 l 1
 338 115 301 102 250 102 c 0
 199 102 162 114 125 144 c 1
 77 96 l 1
 32 141 l 1
251 447 m 0
 177 447 116 386 116 312 c 0
 116 240 177 178 249 178 c 0
 324 178 384 239 384 314 c 0
 384 386 324 447 251 447 c 0
EndSplineSet
EndChar
StartChar: section
Encoding: 167 167 137
Width: 582
Flags: W
HStem: -107 34 669 32
VStem: 81 43<320 361> 403 69<24.5 79>
LayerCount: 2
Fore
SplineSet
459 232 m 0
 459 348 237 360 153 440 c 1
 136 421 124 397 124 373 c 0
 124 267 361 231 436 166 c 1
 451 185 459 209 459 232 c 0
63 23 m 1
 142 50 l 1
 151 44 l 1
 157 -22 198 -76 278 -76 c 0
 350 -76 403 -23 403 48 c 0
 403 110 336 138 243 176 c 0
 149 214 81 248 81 338 c 0
 81 384 105 426 135 464 c 1
 128 484 123 504 123 525 c 0
 123 622 201 701 315 701 c 0
 369 701 449 684 449 622 c 0
 449 615 445 597 442 585 c 1
 375 564 l 1
 359 575 l 1
 359 633 334 670 282 670 c 0
 223 670 188 613 188 561 c 0
 188 529 203 497 238 480 c 2
 340 431 l 1
 411 394 509 372 509 285 c 0
 509 235 489 186 451 150 c 1
 466 128 472 101 472 75 c 0
 472 -26 377 -107 268 -107 c 0
 176 -107 76 -76 63 23 c 1
EndSplineSet
EndChar
StartChar: dieresis
Encoding: 168 168 162
Width: 590
Flags: W
HStem: 518 132<146.303 243.697 346.303 443.697>
VStem: 129 132<535.303 632.697> 329 132<535.303 632.697>
LayerCount: 2
Fore
SplineSet
329 584 m 0
 329 620 359 650 395 650 c 0
 431 650 461 620 461 584 c 0
 461 548 431 518 395 518 c 0
 359 518 329 548 329 584 c 0
129 584 m 0
 129 620 159 650 195 650 c 0
 231 650 261 620 261 584 c 0
 261 548 231 518 195 518 c 0
 159 518 129 548 129 584 c 0
EndSplineSet
EndChar
StartChar: copyright
Encoding: 169 169 160
Width: 594
VWidth: 770
Flags: W
HStem: 163 30<213.774 380.226> 261 30<254.554 392.22> 603 22<247.849 350.043> 697 30<213.774 380.226>
VStem: 12 30<362.646 527.354> 86 85<366.489 527.035> 552 30<362.646 527.354>
LayerCount: 2
Fore
SplineSet
12 445 m 0
 12 601 140 727 297 727 c 0
 454 727 582 601 582 445 c 0
 582 289 454 163 297 163 c 0
 140 163 12 289 12 445 c 0
42 445 m 4
 42 306 156 193 297 193 c 4
 438 193 552 306 552 445 c 4
 552 584 438 697 297 697 c 4
 156 697 42 584 42 445 c 4
471 562 m 1
 416 520 l 1
 408 521 l 1
 394 565 364 603 300 603 c 0
 201 603 171 512 171 450 c 0
 171 380 214 291 322 291 c 0
 369 291 413 306 454 323 c 1
 466 310 l 1
 417 280 360 261 298 261 c 0
 140 261 86 347 86 436 c 0
 86 486 100 536 146 572 c 0
 190 607 251 625 315 625 c 0
 385 625 437 608 471 562 c 1
EndSplineSet
EndChar
StartChar: registered
Encoding: 174 174 161
Width: 594
VWidth: 770
Flags: W
HStem: 163 30<213.774 380.226> 432 20<255 263> 601 20<133 179.08 258.234 339.109> 697 30<213.774 380.226>
VStem: 12 30<362.646 527.354> 178 84<290 432> 185 70<290 432 452 600.25> 375 82<484.827 584.006> 552 30<362.646 527.354>
LayerCount: 2
Fore
SplineSet
12 445 m 0xf980
 12 601 140 727 297 727 c 0
 454 727 582 601 582 445 c 0
 582 289 454 163 297 163 c 0
 140 163 12 289 12 445 c 0xf980
42 445 m 4
 42 306 156 193 297 193 c 4
 438 193 552 306 552 445 c 4
 552 584 438 697 297 697 c 4
 156 697 42 584 42 445 c 4
255 432 m 1xfb80
 262 290 l 1
 182 266 l 1
 178 270 l 1xfd80
 183 348 185 425 185 503 c 0
 185 529 185 570 183 582 c 0
 181 602 150 603 130 605 c 1
 130 618 l 1
 133 621 l 1
 320 621 l 2
 404 621 457 600 457 546 c 0
 457 522 450 495 428 478 c 0
 404 460 375 453 343 446 c 1
 340 440 l 1
 390 390 456 322 486 298 c 1
 488 290 l 1
 420 265 l 1
 408 266 l 1
 263 432 l 2
 263 432 260 432 255 432 c 1xfb80
255 452 m 1xfb80
 282 452 330 460 348 476 c 0
 367 492 375 515 375 538 c 0
 375 582 338 601 288 601 c 0
 278 601 260 603 258 590 c 0
 258 588 255 498 255 452 c 1xfb80
EndSplineSet
EndChar
StartChar: uni00B2
Encoding: 178 178 157
Width: 432
VWidth: 920
Flags: W
HStem: 273 68<152.001 375> 687 48<154.217 251.02>
VStem: 275 94<565.14 661.883>
LayerCount: 2
Fore
SplineSet
396 341 m 1
 375 273 l 1
 31 273 l 1
 31 286 l 1
 101 339 163 396 216 461 c 0
 248 501 275 548 275 597 c 0
 275 639 256 687 192 687 c 0
 154 687 118 665 87 647 c 1
 75 663 l 1
 120 700 180 735 242 735 c 0
 307 735 369 700 369 640 c 0
 369 535 236 437 153 347 c 0
 152 346 152 345 152 344 c 0
 152 343 154 341 156 341 c 2
 396 341 l 1
EndSplineSet
EndChar
StartChar: acute
Encoding: 180 180 150
Width: 590
Flags: W
HStem: 511 198
VStem: 230 182
LayerCount: 2
Fore
SplineSet
250 511 m 5
 230 546 l 5
 340 709 l 5
 353 711 l 5
 412 665 l 5
 250 511 l 5
EndSplineSet
EndChar
StartChar: mu
Encoding: 181 181 22
Width: 646
Flags: MW
HStem: -10 21G<464.5 516>
VStem: 111 103 419 104
LayerCount: 2
Fore
SplineSet
419 116 m 1
 420 255 l 2
 420 307 418 379 417 441 c 1
 515 474 l 1
 527 468 l 1
 526 378 524 247 524 199 c 0
 524 146 523 84 563 84 c 0
 584 84 604 97 623 110 c 1
 632 109 l 1
 641 96 l 1
 601 53 541 -10 491 -10 c 0
 438 -10 422 31 419 74 c 1
 365 36 298 -6 235 -6 c 0
 209 -6 183 0 163 22 c 1
 155 19 l 1
 155 -27 l 2
 155 -74 164 -120 182 -164 c 1
 111 -196 l 1
 95 -182 l 1
 110 26 111 254 111 254 c 1
 111 315 107 376 104 437 c 1
 208 473 l 1
 222 465 l 1
 219 395 216 324 216 254 c 0
 216 183 202 69 305 69 c 0
 348 69 387 94 419 116 c 1
EndSplineSet
EndChar
StartChar: periodcentered
Encoding: 183 183 151
Width: 306
Flags: W
HStem: 191 141<110.875 210.25>
VStem: 90 141<211.75 311.125>
LayerCount: 2
Fore
SplineSet
90 261 m 0
 90 300 122 332 161 332 c 0
 199 332 231 300 231 261 c 0
 231 223 199 191 161 191 c 0
 122 191 90 223 90 261 c 0
EndSplineSet
EndChar
StartChar: ordmasculine
Encoding: 186 186 156
Width: 520
VWidth: 920
Flags: W
HStem: 263 27<213.168 304.136> 560 26<217.524 306.329>
VStem: 77 92<329.145 501.583> 347 92<350.406 519.941>
LayerCount: 2
Fore
SplineSet
169 422 m 0
 169 378 184 290 254 290 c 0
 344 290 347 371 347 444 c 0
 347 496 330 560 262 560 c 0
 187 560 169 479 169 422 c 0
77 421 m 0
 77 516 156 586 266 586 c 0
 312 586 358 577 391 550 c 0
 423 523 439 486 439 448 c 0
 439 314 352 263 248 263 c 0
 204 263 159 268 128 294 c 0
 88 327 77 375 77 421 c 0
EndSplineSet
EndChar
StartChar: onequarter
Encoding: 188 188 231
Width: 842
VWidth: 0
Flags: W
HStem: -9 21G<639 705.923> -6 21<213 269.733> 109 42<497 641 723 777> 633 19<25 49.9623> 685 20G<142.679 224>
VStem: 140 74<296.8 632.484> 645 74<15.8857 104 156 341>
DStem2: 213 27 257 -6 0.537039 0.843557<0 781.461>
LayerCount: 2
Fore
SplineSet
723 151 m 1xbe
 795 151 l 1
 797 146 l 1
 777 109 l 1
 723 109 l 1
 719 104 l 1
 719 75 720 46 723 17 c 1
 649 -9 l 1
 639 -2 l 1
 643 33 645 69 645 105 c 1
 641 109 l 1
 437 109 l 1
 437 140 l 1
 645 406 l 1
 719 423 l 1
 719 417 l 1
 719 156 l 1
 723 151 l 1xbe
645 154 m 1
 645 341 l 1
 641 347 l 1
 638 347 608 315 573 271 c 0
 502 182 494 157 493 155 c 1
 497 151 l 1
 641 151 l 1
 645 154 l 1
25 652 m 1
 214 705 l 1
 224 694 l 1
 216 612 214 530 214 447 c 0
 214 397 214 333 216 295 c 1
 142 271 l 1
 127 279 l 1
 136 350 140 422 140 493 c 0
 140 533 140 573 137 613 c 0
 136 624 125 633 114 633 c 2
 25 633 l 1
 25 652 l 1
EndSplineSet
Refer: 230 8260 N 1 0 0 1 407 0 2
EndChar
StartChar: onehalf
Encoding: 189 189 232
Width: 842
VWidth: 0
Flags: W
HStem: -6 21<167 223.733> 0 62<583.001 802> 382 44<581.346 681.331> 633 19<25 49.9623> 685 20G<142.679 224>
VStem: 140 74<296.8 632.484> 704 92<267.087 359.649>
DStem2: 167 27 211 -6 0.537039 0.843557<0 781.461>
LayerCount: 2
Fore
SplineSet
823 62 m 1x7e
 802 0 l 1
 464 0 l 1
 464 12 l 1
 532 61 594 113 646 173 c 0
 678 210 704 253 704 299 c 0
 704 337 685 382 623 382 c 0
 586 382 550 362 520 345 c 1
 508 359 l 1
 551 393 611 426 672 426 c 0
 736 426 796 394 796 338 c 0
 796 242 665 151 584 68 c 0
 583 67 583 66 583 65 c 0
 583 64 585 62 587 62 c 2
 823 62 l 1x7e
25 652 m 1
 214 705 l 1
 224 694 l 1
 216 612 214 530 214 447 c 0
 214 397 214 333 216 295 c 1
 142 271 l 1
 127 279 l 1
 136 350 140 422 140 493 c 0
 140 533 140 573 137 613 c 0
 136 624 125 633 114 633 c 2
 25 633 l 1
 25 652 l 1
EndSplineSet
Refer: 230 8260 N 1 0 0 1 361 0 2
EndChar
StartChar: threequarters
Encoding: 190 190 233
Width: 842
VWidth: 0
Flags: W
HStem: -9 21G<639 705.923> -6 21<213 269.733> 109 42<497 641 723 777> 266 24<124.252 216.085> 486 18<103 159.305> 657 39<131.559 226.551>
VStem: 246 82<565.688 639.864> 268 88<339.394 448.202> 645 74<15.8857 104 156 341>
DStem2: 213 27 257 -6 0.537039 0.843557<0 781.461>
LayerCount: 2
Fore
SplineSet
206 506 m 1x3e80
 206 501 l 1
 303 494 356 463 356 405 c 0
 356 316 256 266 157 266 c 0
 110 266 63 278 28 303 c 1
 68 367 l 1
 81 366 l 1
 92 332 118 290 162 290 c 0
 238 290 268 341 268 392 c 0x3d80
 268 471 185 486 103 486 c 1
 103 504 l 1
 162 507 246 530 246 596 c 0
 246 633 213 657 170 657 c 0
 135 657 102 640 73 624 c 1
 61 639 l 1
 105 667 160 696 216 696 c 0
 272 696 328 669 328 620 c 0
 328 562 268 526 206 506 c 1x3e80
723 151 m 1
 795 151 l 1
 797 146 l 1
 777 109 l 1
 723 109 l 1
 719 104 l 1
 719 75 720 46 723 17 c 1
 649 -9 l 1xbc80
 639 -2 l 1
 643 33 645 69 645 105 c 1
 641 109 l 1
 437 109 l 1
 437 140 l 1
 645 406 l 1
 719 423 l 1
 719 417 l 1
 719 156 l 1
 723 151 l 1
645 154 m 1
 645 341 l 1
 641 347 l 1
 638 347 608 315 573 271 c 0
 502 182 494 157 493 155 c 1
 497 151 l 1
 641 151 l 1
 645 154 l 1
EndSplineSet
Refer: 230 8260 N 1 0 0 1 407 0 2
EndChar
StartChar: AE
Encoding: 198 198 240
Width: 828
Flags: W
HStem: -8 21G<749 812.842> 0 61<485.171 688.438> 268 52<219.005 336> 343 46<461.509 693.229> 631 78<496.155 731.636> 647 50<274.75 317.826>
VStem: 336 125<85.3652 268 320 342.667 389.012 543.23>
LayerCount: 2
Fore
SplineSet
318 638 m 0x72
 319 639 319 641 319 643 c 0
 319 644 318 647 316 647 c 2
 217 659 l 1
 217 697 l 1x76
 399 692 566 697 723 709 c 1
 736 704 l 1
 736 642 l 1
 724 631 l 1
 647 636 497 645 496 645 c 0
 460 645 461 622 461 595 c 2
 461 415 l 2
 461 406 469 389 481 389 c 0
 543 389 698 405 701 406 c 0
 702 406 710 401 714 398 c 1
 714 340 l 1
 645 343 565 343 489 343 c 0
 466 343 461 330 461 316 c 0
 461 251 461 174 470 123 c 1
 475 82 496 61 537 61 c 0x7a
 552 61 822 76 822 76 c 1
 832 68 l 1
 806 -8 l 1xb2
 692 -1 578 0 464 0 c 0
 432 0 384 0 369 4 c 1
 354 12 336 32 336 51 c 2
 336 268 l 1
 181 268 l 1
 147 204 105 97 71 10 c 1
 -55 -1 l 1
 -57 9 l 1
 75 205 208 429 318 638 c 0x72
336 320 m 1
 336 540 l 2
 336 547 329 548 326 543 c 2
 221 335 l 2
 219 332 219 330 219 326 c 0
 219 323 226 320 230 320 c 2
 336 320 l 1
EndSplineSet
EndChar
StartChar: Eth
Encoding: 208 208 237
Width: 828
UnlinkRmOvrlpSave: 1
Flags: W
HStem: -1 43<237.524 448.62> 336 50<19 336> 655 43<225.455 475.691> 668 30<8 67.9348>
VStem: 99 125<55.3525 647.5> 632 154<242.152 513.41>
LayerCount: 2
Fore
SplineSet
336 336 m 1xcc
 0 336 l 1
 19 386 l 1
 352 386 l 1
 336 336 l 1xcc
EndSplineSet
Refer: 57 68 N 1 0 0 1 0 0 2
EndChar
StartChar: multiply
Encoding: 215 215 229
Width: 793
Flags: W
DStem2: 184 510 145 481 0.707866 -0.706347<0 299.055 347.19 651.194> 145 49 184 20 0.707871 0.706342<7.12305 306.178 354.313 654.074>
LayerCount: 2
Fore
SplineSet
430 265 m 1
 648 46 l 1
 611 16 l 1
 396 231 l 1
 184 20 l 1
 145 49 l 1
 362 265 l 1
 145 481 l 1
 184 510 l 1
 396 299 l 1
 608 511 l 1
 646 481 l 1
 430 265 l 1
EndSplineSet
EndChar
StartChar: eth
Encoding: 240 240 242
Width: 579
UnlinkRmOvrlpSave: 1
Flags: W
HStem: -18 39<228.726 340.965> 441 36<242.398 347.581> 676.668 20G<198.69 293.5>
VStem: 44 118<106.484 340.468> 401 114<144.52 391.142>
DStem2: 164.425 555.358 166.657 501.916 0.919145 0.39392<0 317>
LayerCount: 2
Fore
SplineSet
475.490234375 634.2734375 m 1
 166.657226562 501.916015625 l 1
 164.424804688 555.358398438 l 1
 470.5 686.533203125 l 1
 475.490234375 634.2734375 l 1
210.333007812 696.66796875 m 17
 376.666992188 624 510.5 518.533203125 515 279 c 0
 517.516601562 145.0234375 452 -18 269 -18 c 0
 206 -18 150 3 106 43 c 0
 58 86 44 164 44 225 c 0
 44 291 61 360 114 408 c 0
 165 455 234 477 306 477 c 0
 313 477 329 476 345 474 c 1
 351 484 l 1
 322 551 272.5 614.599609375 190.5 662.599609375 c 9
 210.333007812 696.66796875 l 17
368 430 m 1
 352 436 334 441 317 441 c 0
 196 441 162 342 162 240 c 0
 162 165 181 21 286 21 c 0
 392 21 401 166 401 261 c 0
 401 319 389 376 368 430 c 1
EndSplineSet
EndChar
StartChar: dotlessi
Encoding: 305 305 107
Width: 297
Flags: W
HStem: -13 85<157 249> 420 73<44 145>
VStem: 90 104<80.4347 416.538>
LayerCount: 2
Fore
SplineSet
308 119 m 1
 325 103 l 1
 325 92 l 1
 287 45 229 -13 169 -13 c 0
 145 -13 122 -3 109 15 c 0
 82 50 90 101 90 254 c 2
 90 371 l 1
 88 392 83 420 55 420 c 0
 33 420 10 405 -14 388 c 1
 -30 410 l 1
 16 447 77 493 135 493 c 0
 155 493 175 486 185 470 c 0
 193 457 197 445 197 386 c 0
 197 346 194 305 194 265 c 0
 194 143 184 72 237 72 c 0
 261 72 288 99 308 119 c 1
EndSplineSet
Colour: ff0000
EndChar
StartChar: OE
Encoding: 338 338 243
Width: 1097
Flags: W
HStem: -15 46<341.286 523.343> -8 21G<1010 1073.84> 0 61<746.171 949.438> 343 46<722.509 954.229> 631 78<757.155 992.636> 645 51<506 757> 666 30<506 535> 680 40<341.151 559.721>
VStem: 52 138<222.352 469.682> 597 125<251 330 406 524> 659 49<187 464>
LayerCount: 2
Fore
SplineSet
1083 76 m 1x34c0
 1093 68 l 1
 1067 -8 l 1x50c0
 953 -1 839 0 725 0 c 0
 693 0 452 0 437 4 c 1
 422 12 597 47 597 66 c 2
 597 480 l 2
 597 524 597 594 593 612 c 0
 581 657 535 661 499 666 c 1x32c0
 499 689 l 1
 506 696 l 1x14c0
 667 696 871 696 984 709 c 1
 997 704 l 1
 997 642 l 1
 985 631 l 1x18c0
 908 636 758 645 757 645 c 0
 721 645 722 622 722 595 c 2
 722 415 l 2
 722 406 730 389 742 389 c 0
 804 389 959 405 962 406 c 0
 963 406 971 401 975 398 c 1
 975 340 l 1
 906 343 826 343 750 343 c 0
 727 343 722 330 722 316 c 0
 722 251 722 174 731 123 c 1
 736 82 757 61 798 61 c 0
 813 61 1083 76 1083 76 c 1x34c0
708 114 m 1x91a0
 627 24 502 -15 369 -15 c 0
 289 -15 209 7 152 59 c 0
 78 127 52 233 52 330 c 0
 52 438 88 553 173 630 c 0
 250 700 350 720 469 720 c 0
 554 720 641 699 702 644 c 1
 708 114 l 1x91a0
190 366 m 0
 190 229 251 31 434 31 c 0
 610 31 659 187 659 325 c 0
 659 464 613 680 427 680 c 0
 265 680 190 506 190 366 c 0
EndSplineSet
EndChar
StartChar: oe
Encoding: 339 339 244
Width: 888
Flags: W
HStem: -16 68<608.453 733.702> -11 41<226.055 354.437> 446 40<232.396 358.641> 455 40<608.614 728.777>
VStem: 34 129<111.385 334.329> 416 122<156 213 258 335> 418 90<143 251.692> 766 123<318.654 418.422>
LayerCount: 2
Fore
SplineSet
551 258 m 0x1d
 736 317 766 315 766 344 c 0
 766 395 740 455 675 455 c 0
 567 455 538 335 538 262 c 0
 538 258 541 257 545 257 c 0
 547 257 549 258 551 258 c 0x1d
853 101 m 1
 864 82 l 1
 798 35 717 -16 635 -16 c 0
 578 -16 519 -2 479 35 c 0
 431 79 418 143 418 204 c 0x9b
 418 351 509 495 698 495 c 0
 792 495 889 459 889 349 c 0
 889 328 879 318 860 312 c 0
 859 312 645 246 538 213 c 1
 538 133 589 52 686 52 c 0x9d
 741 52 792 77 838 105 c 1
 853 101 l 1
163 234 m 0
 163 167 185 30 283 30 c 0
 411 30 416 156 416 268 c 0
 416 353 389 446 295 446 c 0x6d
 190 446 163 321 163 234 c 0
508 109 m 1x6b
 461 24 373 -11 275 -11 c 0
 214 -11 150 -3 106 37 c 0
 50 88 34 162 34 233 c 0
 34 378 145 486 301 486 c 0
 365 486 431 473 478 431 c 0
 496 414 510 395 521 374 c 1
 508 109 l 1x6b
EndSplineSet
EndChar
StartChar: dotlessj
Encoding: 567 567 108
Width: 367
Flags: MW
HStem: -194 21 418 74
VStem: 147 104
LayerCount: 2
Fore
SplineSet
38 389 m 1
 22 411 l 1
 67 445 128 493 181 493 c 0
 264 493 251 417 251 256 c 0
 251 191 251 81 246 27 c 0
 234 -85 112 -180 9 -246 c 1
 -18 -227 l 1
 63 -166 135 -101 142 0 c 0
 144 32 145 78 145 125 c 0
 145 275 161 420 107 420 c 0
 85 420 58 405 38 389 c 1
EndSplineSet
EndChar
StartChar: gravecomb
Encoding: 768 768 163
Width: 0
Flags: W
LayerCount: 2
Fore
SplineSet
71 511 m 1
 91 546 l 1
 -19 709 l 1
 -32 711 l 1
 -91 665 l 1
 71 511 l 1
EndSplineSet
EndChar
StartChar: acutecomb
Encoding: 769 769 164
Width: 0
Flags: W
HStem: 511 198
VStem: -91 182
LayerCount: 2
Fore
SplineSet
-71 511 m 5
 -91 546 l 5
 19 709 l 5
 32 711 l 5
 91 665 l 5
 -71 511 l 5
EndSplineSet
EndChar
StartChar: uni030A
Encoding: 778 778 169
Width: 0
Flags: W
HStem: 470 35<-45.8336 45.6303> 646 35<-45.8336 44.4657>
VStem: -106 36<529.466 621.048> 70 36<529.466 621.048>
LayerCount: 2
Fore
SplineSet
-106 575 m 0
 -106 633 -58 681 0 681 c 0
 58 681 106 633 106 575 c 0
 106 517 58 470 0 470 c 0
 -58 470 -106 517 -106 575 c 0
-70 575 m 0
 -70 537 -39 505 0 505 c 0
 38 505 70 537 70 575 c 0
 70 614 38 646 0 646 c 0
 -39 646 -70 614 -70 575 c 0
EndSplineSet
EndChar
StartChar: uni0327
Encoding: 807 807 170
Width: 0
Flags: W
LayerCount: 2
Fore
SplineSet
-29 6 m 25
 -86 -122 l 17
 -49 -133 -1 -161 -29 -199 c 0
 -43 -217 -59 -224 -85 -234 c 1
 -90 -244 l 1
 -84 -259 l 1
 -29 -249 51 -236 84 -192 c 0
 110 -156 101 -120 78 -92 c 0
 59 -69 18 -46 5 -41 c 1
 25 6 l 9
 -29 6 l 25
EndSplineSet
EndChar
StartChar: Gamma
Encoding: 915 915 0
Width: 536
Flags: MW
HStem: -9 21<118 118> 631 61
VStem: 102 124 548 31
LayerCount: 2
Fore
SplineSet
562 692 m 1
 579 511 l 1
 551 508 l 1
 510 586 l 2
 483 638 404 632 347 633 c 0
 308 633 228 639 228 606 c 1
 225 569 225 479 225 416 c 0
 225 287 226 159 234 31 c 1
 118 -9 l 1
 101 3 l 1
 105 182 106 539 106 587 c 0
 106 608 102 630 86 645 c 2
 54 675 l 1
 56 692 l 1
 562 692 l 1
EndSplineSet
EndChar
StartChar: Theta
Encoding: 920 920 2
Width: 969
Flags: MW
HStem: 651 48
VStem: 734 138
LayerCount: 2
Fore
SplineSet
608 429 m 2
 623 473 l 1
 644 473 l 1
 644 229 l 1
 618 229 l 1
 604 285 l 2
 598 308 549 303 498 303 c 0
 445 303 355 310 346 284 c 2
 327 229 l 1
 308 229 l 1
 308 473 l 1
 334 473 l 1
 346 422 l 2
 350 406 452 409 505 409 c 0
 543 409 599 402 608 429 c 2
428 -14 m 0
 338 -14 244 5 179 64 c 0
 105 131 77 227 77 321 c 0
 77 424 111 526 191 598 c 0
 275 674 403 699 521 699 c 0
 615 699 712 682 780 621 c 0
 848 559 872 470 872 383 c 0
 872 276 845 166 760 89 c 0
 673 10 549 -14 428 -14 c 0
493 32 m 1
 558 31 617 56 663 98 c 0
 724 153 738 251 738 331 c 0
 738 546 632 655 468 655 c 0
 253 655 215 486 215 348 c 0
 215 200 298 32 493 32 c 1
EndSplineSet
EndChar
StartChar: Lambda
Encoding: 923 923 3
Width: 848
Flags: MW
HStem: -13 21<629 629> 674 20<508 508>
VStem: 18 798<16 39>
LayerCount: 2
Fore
SplineSet
403 672 m 1
 508 694 l 1
 551 524 594 350 667 188 c 0
 691 134 723 62 785 62 c 0
 795 62 805 63 814 66 c 1
 816 39 l 1
 629 -13 l 1
 601 -2 579 19 570 45 c 0
 558 77 464 374 412 539 c 1
 397 539 l 1
 301 366 222 200 142 20 c 1
 30 -4 l 1
 18 16 l 1
 159 228 287 447 403 672 c 1
EndSplineSet
Colour: ff0000
EndChar
StartChar: Xi
Encoding: 926 926 4
Width: 653
Flags: MW
HStem: -3 109 169 20<595 595> 306 107 505 21<26 56 26 26 597 620 597 597> 584 115
VStem: 26 597<186 505>
LayerCount: 2
Fore
SplineSet
623 186 m 1
 602 -6 l 1
 50 -6 l 1
 29 186 l 1
 55 188 l 1
 72 136 l 2
 79 115 104 106 128 106 c 2
 522 106 l 2
 543 106 566 113 574 133 c 2
 595 189 l 1
 623 186 l 1
149 413 m 1
 503 413 l 1
 507 406 l 1
 477 308 l 1
 207 307 l 2
 180 307 152 305 125 302 c 1
 117 308 l 1
 149 413 l 1
598 693 m 1
 620 505 l 1
 597 505 l 1
 575 547 l 2
 560 575 515 584 479 584 c 2
 141 585 l 2
 119 585 94 582 84 562 c 2
 56 505 l 1
 26 505 l 1
 46 693 l 1
 598 693 l 1
EndSplineSet
EndChar
StartChar: Pi
Encoding: 928 928 5
Width: 845
Flags: MW
HStem: -14 21<598 598> 623 65
VStem: 119 126 589 126
LayerCount: 2
Fore
SplineSet
724 214 m 1
 724 19 l 1
 598 -14 l 1
 582 -3 l 1
 587 191 l 2
 588 231 589 440 589 601 c 0
 589 617 573 623 551 623 c 2
 284 623 l 2
 268 623 251 615 249 599 c 0
 244 562 244 411 244 316 c 0
 244 220 246 124 252 27 c 1
 130 -9 l 1
 115 1 l 1
 118 103 119 206 119 309 c 0
 119 408 116 507 116 605 c 0
 116 619 111 633 96 638 c 2
 29 659 l 1
 29 690 l 1
 100 687 170 686 241 686 c 2
 813 686 l 1
 811 653 l 1
 751 641 l 2
 698 630 713 527 713 471 c 0
 713 385 713 288 724 214 c 1
EndSplineSet
EndChar
StartChar: Sigma
Encoding: 931 931 6
Width: 713
Flags: MW
HStem: 0 20 623 66
VStem: 28 635
LayerCount: 2
Fore
SplineSet
377 378 m 2
 173 125 l 1
 334 125 494 126 653 134 c 1
 659 119 l 1
 626 -1 l 1
 555 4 482 2 409 2 c 0
 282 2 155 1 28 1 c 1
 47 68 l 1
 125 150 214 260 284 350 c 1
 87 626 l 1
 87 639 l 1
 166 690 l 1
 321 690 477 690 632 699 c 1
 642 691 l 1
 604 623 l 1
 538 626 379 626 263 626 c 1
 258 619 l 1
 379 442 l 2
 389 428 392 419 392 411 c 0
 391 403 385 388 377 378 c 2
EndSplineSet
Colour: ff0000
EndChar
StartChar: Upsilon
Encoding: 933 933 7
Width: 794
Flags: MW
HStem: -6 21<348 348> 605 96
VStem: 29 22 334 128<179.5 238> 732 31
LayerCount: 2
Fore
SplineSet
470 27 m 1
 348 -6 l 1
 328 2 l 1
 333 68 334 134 334 200 c 0
 334 276 326 353 304 426 c 0
 281 502 233 602 137 602 c 0
 84 602 64 567 49 530 c 1
 29 535 l 1
 36 616 93 691 197 691 c 0
 373 691 391 506 396 371 c 1
 406 371 l 1
 431 491 480 707 638 707 c 0
 750 707 763 614 763 536 c 1
 738 534 l 1
 730 572 706 601 664 601 c 0
 633 601 607 592 586 573 c 0
 488 484 462 338 462 210 c 0
 462 149 466 88 470 27 c 1
EndSplineSet
Colour: ff0000
EndChar
StartChar: Phi
Encoding: 934 934 8
Width: 974
Flags: MW
HStem: 0 29 90 26<407 407> 555 32 657 28
VStem: 78 143<313 394.5 313 430> 412 135 744 140<331.5 435 331.5 439>
LayerCount: 2
Fore
SplineSet
642 661 m 1
 564 646 l 2
 553 644 542 636 542 625 c 2
 542 598 l 1
 552 587 l 1
 800 587 884 503 884 367 c 0
 884 296 866 222 810 172 c 0
 743 112 645 92 552 90 c 1
 542 80 l 1
 542 54 l 1
 544 48 560 45 570 43 c 2
 652 28 l 1
 652 0 l 1
 319 0 l 1
 320 27 l 1
 387 39 414 37 417 59 c 1
 417 80 l 1
 407 90 l 1
 174 95 78 198 78 342 c 0
 78 518 242 584 407 588 c 0
 409 588 416 597 417 598 c 1
 417 622 l 2
 417 633 410 642 397 644 c 2
 319 658 l 1
 319 685 l 1
 642 685 l 1
 642 661 l 1
552 116 m 1
 701 123 744 246 744 358 c 0
 744 520 650 554 552 556 c 1
 542 546 l 1
 542 127 l 1
 552 116 l 1
407 556 m 1
 270 549 221 445 221 344 c 0
 221 282 236 217 285 173 c 0
 317 144 362 119 407 116 c 1
 417 126 l 1
 417 546 l 1
 407 556 l 1
EndSplineSet
Colour: ff0000
EndChar
StartChar: Psi
Encoding: 936 936 9
Width: 782
Flags: W
HStem: -1 21G<233 564 233 233> 683 20G<139.5 190.5>
VStem: 84 125 331 123<213.5 240 240 240> 331 129<666 686> 335 121<291 353.5 287 355.5>
LayerCount: 2
Fore
SplineSet
719 592 m 2xe4
 683 418 l 2
 663 324 634 278 461 252 c 1
 454 243 l 1xf0
 454 184 450 57 488 46 c 2
 564 26 l 1
 564 -1 l 1
 233 -1 l 1
 233 28 l 1
 304 44 l 2
 320 47 331 59 331 74 c 2
 331 240 l 1xe8
 324 249 l 1
 287 254 249 259 214 270 c 0
 -25 342 169 649 19 649 c 0
 11 649 -9 646 -24 640 c 1
 -30 664 l 1
 28 678 130 703 149 703 c 0
 232 703 206 597 209 511 c 0
 212 432 236 315 326 285 c 1
 335 291 l 1xe4
 335 420 335 607 331 666 c 1
 445 698 l 1
 460 686 l 1xe8
 456 559 456 420 456 287 c 1
 464 281 l 1
 520 295 551 344 559 394 c 2
 587 581 l 2
 591 607 598 633 615 655 c 1
 665 670 717 682 770 688 c 1
 766 661 l 1
 736 650 725 620 719 592 c 2xe4
EndSplineSet
EndChar
StartChar: alpha
Encoding: 945 945 11
Width: 715
Flags: MW
HStem: -16 88 413 61
VStem: 90 107<189.5 240>
LayerCount: 2
Fore
SplineSet
620 476 m 1
 687 440 l 1
 553 261 l 1
 600 112 l 2
 606 91 622 64 647 64 c 0
 657 64 681 81 699 95 c 1
 712 94 l 1
 722 79 l 1
 681 38 626 -18 576 -18 c 0
 515 -18 498 65 472 158 c 1
 464 159 l 1
 438 129 396 86 378 69 c 0
 333 27 270 -14 206 -14 c 0
 110 -14 90 96 90 168 c 0
 90 312 194 474 366 474 c 0
 439 474 487 441 527 333 c 1
 536 333 l 1
 620 476 l 1
455 220 m 1
 437 276 404 414 311 414 c 0
 216 414 197 300 197 217 c 0
 197 162 214 72 283 72 c 0
 313 72 337 90 358 108 c 0
 380 127 411 158 455 220 c 1
EndSplineSet
EndChar
StartChar: beta
Encoding: 946 946 12
Width: 700
Flags: MW
HStem: -194 21<121 121> -11 37<363.5 420.5> 338 34<277 304> 630 46<318.5 365>
VStem: 114 111 491 124<160.5 208>
LayerCount: 2
Fore
SplineSet
227 -152 m 1
 121 -194 l 1
 107 -184 l 1
 112 -62 112 156 112 326 c 0
 112 383 113 442 132 497 c 0
 171 610 259 676 378 676 c 0
 461 676 549 641 549 552 c 0
 549 476 494 409 410 383 c 1
 408 372 l 1
 540 359 615 305 615 206 c 0
 615 55 490 -11 351 -11 c 0
 309 -11 258 -5 239 34 c 1
 300 109 l 1
 312 106 l 1
 319 70 343 26 384 26 c 0
 473 26 491 127 491 194 c 0
 491 222 475 278 441 309 c 0
 409 338 332 338 276 338 c 1
 277 372 l 1
 376 372 448 439 448 531 c 0
 448 591 394 630 336 630 c 0
 228 630 217 517 217 424 c 0
 217 423 223 40 227 -152 c 1
EndSplineSet
Colour: ff0000
EndChar
StartChar: gamma
Encoding: 947 947 13
Width: 646
Flags: MW
HStem: -201 19 407 65
VStem: 289 76
LayerCount: 2
Fore
SplineSet
305 -201 m 1
 233 -152 l 1
 294 -7 l 1
 288 68 273 174 251 246 c 0
 231 310 199 408 112 408 c 0
 77 408 40 387 14 366 c 1
 -3 391 l 1
 46 435 108 471 178 471 c 0
 346 471 361 285 365 133 c 1
 374 131 l 1
 440 241 489 342 527 463 c 1
 546 475 l 1
 625 444 l 1
 560 328 490 233 422 138 c 0
 407 118 378 61 368 33 c 1
 368 -27 368 -112 360 -166 c 1
 305 -201 l 1
EndSplineSet
EndChar
StartChar: delta
Encoding: 948 948 14
Width: 584
Flags: MW
HStem: -11 69<266 313> 624 49
VStem: 81 103<201.5 213> 426 79
LayerCount: 2
Fore
SplineSet
254 390 m 1
 207 350 184 293 184 236 c 0
 184 167 223 58 309 58 c 0
 384 58 427 91 427 169 c 0
 427 236 349 309 286 361 c 1
 254 390 l 1
454 655 m 1
 436 612 l 1
 416 616 360 624 323 624 c 0
 284 624 224 621 224 577 c 0
 224 503 505 397 505 244 c 0
 505 108 385 -11 241 -11 c 0
 124 -11 81 73 81 163 c 0
 81 263 145 351 230 411 c 1
 201 437 155 480 155 518 c 0
 155 561 179 599 212 629 c 0
 254 667 337 672 363 672 c 0
 380 672 421 667 448 664 c 1
 454 655 l 1
EndSplineSet
EndChar
StartChar: zeta
Encoding: 950 950 16
Width: 524
Flags: MW
HStem: -129 21<426 426> -10 86 586 34 655 20
VStem: 78 115 432 80
LayerCount: 2
Fore
SplineSet
426 -129 m 1
 404 -115 l 1
 419 -93 432 -69 432 -42 c 0
 432 -16 409 -1 367 -1 c 0
 331 -1 270 -9 243 -9 c 0
 223 -9 160 1 135 24 c 0
 95 60 79 112 79 162 c 0
 79 323 218 482 354 580 c 1
 352 589 l 1
 302 591 224 600 176 623 c 1
 174 634 l 1
 211 674 l 1
 222 674 l 1
 265 643 321 617 422 617 c 0
 445 617 468 620 488 623 c 1
 488 599 l 1
 324 550 194 393 194 214 c 0
 194 172 201 128 233 97 c 0
 255 76 306 72 315 72 c 0
 346 72 395 78 428 78 c 0
 443 78 511 74 511 26 c 0
 511 -18 462 -82 426 -129 c 1
EndSplineSet
EndChar
StartChar: eta
Encoding: 951 951 17
Width: 652
Flags: MW
HStem: -197 21<434 434> -7 21<131 131> 398 72
VStem: 127 106 424 108
LayerCount: 2
Fore
SplineSet
540 -156 m 1
 434 -197 l 1
 420 -185 l 1
 426 -79 426 61 426 184 c 0
 426 298 435 402 343 402 c 0
 301 402 264 386 230 365 c 1
 230 291 232 53 234 31 c 1
 131 -7 l 1
 120 3 l 1
 120 104 128 206 128 307 c 0
 128 344 129 396 89 396 c 0
 71 396 46 381 27 369 c 1
 11 392 l 1
 61 434 106 470 165 470 c 0
 198 470 219 457 227 406 c 1
 237 403 l 1
 294 436 360 469 426 469 c 0
 457 469 482 456 503 437 c 0
 556 387 523 59 540 -156 c 1
EndSplineSet
Colour: ff0000
EndChar
StartChar: lambda
Encoding: 955 955 21
Width: 596
Flags: MW
HStem: -11 21 624 55
VStem: 29 541
LayerCount: 2
Fore
SplineSet
290 374 m 1
 204 206 166 125 133 20 c 1
 37 -6 l 1
 29 7 l 1
 65 79 104 150 146 220 c 2
 259 408 l 2
 264 416 270 427 274 436 c 1
 257 484 237 530 230 545 c 0
 211 584 181 626 133 626 c 0
 111 626 87 622 64 615 c 1
 54 638 l 1
 103 659 155 679 210 679 c 0
 273 679 309 640 334 586 c 0
 362 525 383 461 408 398 c 0
 456 277 508 158 565 41 c 1
 563 29 l 1
 463 -8 l 1
 439 3 l 1
 393 131 349 247 297 374 c 1
 290 374 l 1
EndSplineSet
Colour: ff0000
EndChar
StartChar: nu
Encoding: 957 957 23
Width: 639
Flags: MW
HStem: -6 21<322 322> 405 65
VStem: -2 606
LayerCount: 2
Fore
SplineSet
527 471 m 1
 598 445 l 1
 603 432 l 1
 594 413 585 393 575 373 c 2
 394 20 l 1
 322 -6 l 1
 312 -1 l 1
 289 110 266 229 210 330 c 0
 201 346 163 405 110 405 c 0
 87 405 64 397 45 387 c 1
 26 416 l 1
 66 452 123 473 179 473 c 0
 214 473 251 465 276 441 c 0
 342 376 368 236 390 131 c 1
 399 130 l 1
 453 256 l 1
 476 322 494 389 502 456 c 1
 527 471 l 1
EndSplineSet
Colour: ff0000
EndChar
StartChar: xi
Encoding: 958 958 24
Width: 588
Flags: MW
HStem: -126 21<489 489> 1 87 339 29 607 29 669 20<179 179>
VStem: 73 122 502 74<-55 50>
LayerCount: 2
Fore
SplineSet
489 -126 m 1
 468 -110 l 1
 483 -91 502 -64 502 -46 c 0
 502 -9 465 3 429 3 c 0
 376 3 297 -9 259 -9 c 0
 126 -9 73 61 73 145 c 0
 73 228 169 302 250 331 c 1
 250 342 l 1
 219 348 136 370 136 449 c 0
 136 524 221 570 290 596 c 1
 288 606 l 1
 242 608 157 610 135 640 c 1
 179 689 l 1
 187 688 l 1
 227 650 289 635 349 635 c 0
 389 635 417 637 452 641 c 1
 455 612 l 1
 382 603 251 572 251 478 c 0
 251 374 344 369 426 367 c 1
 426 341 l 1
 361 336 294 323 247 280 c 0
 218 254 193 221 193 183 c 0
 193 154 195 123 218 103 c 0
 244 80 282 77 318 77 c 0
 366 77 439 88 475 88 c 0
 545 88 576 71 576 29 c 0
 576 -32 531 -82 489 -126 c 1
EndSplineSet
EndChar
StartChar: pi
Encoding: 960 960 25
Width: 664
Flags: MW
HStem: -5 21 388 97<113.5 543 171 229 283 411 283 283 518 543 543 566 171 596 518 518> 509 14
VStem: 403 106
LayerCount: 2
Fore
SplineSet
171 485 m 2
 543 485 l 2
 589 485 642 493 669 523 c 1
 685 511 l 1
 661 461 626 388 596 388 c 2
 518 388 l 1
 513 344 509 294 509 258 c 0
 509 174 511 81 582 81 c 0
 598 81 620 94 634 107 c 1
 644 105 l 1
 654 85 l 1
 615 48 566 1 507 1 c 0
 399 1 404 96 404 183 c 0
 404 248 410 315 418 380 c 1
 411 388 l 1
 283 388 l 1
 258 254 221 131 167 4 c 1
 154 -4 l 1
 76 8 l 1
 75 21 l 1
 89 40 145 125 180 200 c 0
 200 243 221 333 229 388 c 1
 135 388 l 2
 92 388 62 325 46 279 c 1
 18 291 l 1
 31 355 55 450 79 468 c 0
 101 485 139 485 171 485 c 2
EndSplineSet
EndChar
StartChar: sigma
Encoding: 963 963 27
Width: 700
Flags: MW
HStem: -11 43<289 349> 421 43
VStem: 86 126<191 256.5> 440 107<198.5 268 198.5 268>
LayerCount: 2
Fore
SplineSet
325 425 m 0
 283 425 212 406 212 228 c 0
 212 154 223 32 321 32 c 0
 421 32 440 154 440 233 c 0
 440 303 431 425 325 425 c 0
673 475 m 1
 681 471 l 1
 659 393 l 1
 649 386 l 1
 452 421 l 1
 446 414 l 1
 522 370 547 305 547 231 c 0
 547 166 532 99 481 53 c 0
 438 14 379 -11 319 -11 c 0
 259 -11 196 -2 152 38 c 0
 99 86 86 157 86 224 c 0
 86 289 94 360 146 408 c 0
 194 452 258 464 325 464 c 0
 438 464 560 472 673 475 c 1
EndSplineSet
Colour: ff0000
EndChar
StartChar: tau
Encoding: 964 964 28
Width: 581
Flags: MW
HStem: -7 78 372 88<377 456 456 477 161 499 377 377> 483 15
VStem: 31 29 245 109
LayerCount: 2
Fore
SplineSet
499 372 m 2
 377 372 l 1
 366 361 l 1
 360 320 353 261 353 223 c 0
 353 167 360 69 429 69 c 0
 443 69 464 80 482 93 c 1
 492 92 l 1
 502 77 l 1
 462 37 406 -7 350 -7 c 0
 250 -7 243 74 243 127 c 0
 243 220 255 286 263 361 c 1
 254 371 l 1
 180 371 l 2
 158 371 119 368 102 353 c 0
 79 332 67 298 57 268 c 1
 31 276 l 1
 39 315 51 370 56 391 c 0
 69 445 114 460 161 460 c 2
 456 460 l 2
 498 460 540 472 572 497 c 1
 584 488 l 1
 575 450 527 372 499 372 c 2
EndSplineSet
Colour: ff0000
EndChar
StartChar: upsilon
Encoding: 965 965 29
Width: 622
Flags: MW
HStem: 0 64 391 82
VStem: 123 106 485 85<223.5 261.5>
LayerCount: 2
Fore
SplineSet
409 399 m 1
 406 411 l 1
 489 472 l 1
 505 466 l 1
 556 422 570 357 570 295 c 0
 570 152 451 -2 288 -2 c 0
 188 -2 125 66 125 145 c 1
 126 149 123 252 123 305 c 0
 123 347 114 392 80 392 c 0
 60 392 38 381 18 371 c 1
 3 390 l 1
 52 423 121 471 159 471 c 0
 226 471 227 396 227 371 c 2
 227 240 l 2
 227 141 264 65 356 65 c 0
 453 65 485 151 485 230 c 0
 485 293 455 352 409 399 c 1
EndSplineSet
EndChar
StartChar: phi
Encoding: 966 966 30
Width: 874
Flags: MW
HStem: -7 35<312.5 367 312.5 367 489 526> 437 32<343.5 365>
VStem: 86 127<181 259> 376 105<-40 -16 -40 -16> 663 127<222.5 302 222.5 341.5>
LayerCount: 2
Fore
SplineSet
382 -196 m 1
 368 -185 l 1
 372 -130 376 -73 376 -16 c 1
 367 -7 l 1
 146 -7 86 97 86 227 c 0
 86 291 102 358 153 404 c 0
 183 431 239 469 366 469 c 1
 375 479 l 1
 374 532 371 584 370 637 c 1
 475 672 l 1
 483 663 l 1
 481 637 481 561 480 479 c 1
 490 469 l 1
 536 468 584 469 643 454 c 0
 754 424 790 345 790 259 c 0
 790 186 767 114 710 62 c 0
 648 5 563 -7 489 -7 c 1
 481 -16 l 1
 481 -64 481 -111 482 -159 c 1
 382 -196 l 1
365 437 m 1
 322 437 291 421 258 391 c 0
 217 353 213 292 213 236 c 0
 213 126 258 28 367 28 c 1
 375 38 l 1
 375 427 l 1
 365 437 l 1
489 28 m 1
 627 28 663 148 663 248 c 0
 663 435 552 437 490 437 c 1
 480 428 l 1
 480 36 l 1
 489 28 l 1
EndSplineSet
EndChar
StartChar: chi
Encoding: 967 967 31
Width: 588
Flags: MW
HStem: -194 70 385 78
VStem: -4 602
LayerCount: 2
Fore
SplineSet
593 -116 m 1
 598 -138 l 1
 551 -162 498 -193 450 -193 c 0
 363 -193 328 -86 255 71 c 1
 244 71 l 1
 220 41 163 -44 106 -191 c 1
 93 -197 l 1
 10 -162 l 1
 78 -62 152 32 228 124 c 1
 198 190 161 270 146 299 c 0
 126 338 99 386 65 386 c 0
 53 386 36 378 9 359 c 1
 -9 381 l 1
 32 417 87 462 139 462 c 0
 184 462 206 417 222 385 c 0
 225 381 267 291 299 222 c 1
 309 222 l 1
 493 464 l 1
 508 470 l 1
 563 436 l 1
 561 425 l 1
 489 334 401 255 324 167 c 1
 393 21 456 -122 540 -122 c 0
 558 -122 576 -119 593 -116 c 1
EndSplineSet
EndChar
StartChar: psi
Encoding: 968 968 32
Width: 822
Flags: MW
HStem: -196 21<370 370> -6 34 391 81 652 20<464 464>
VStem: 110 106<177.5 206.5> 365 104 647 95<256 275.5>
LayerCount: 2
Fore
SplineSet
464 672 m 1
 472 663 l 1
 468 615 468 407 468 279 c 2
 468 43 l 1
 477 35 l 1
 613 56 647 155 647 248 c 0
 647 303 620 353 576 390 c 1
 576 404 l 1
 643 465 l 1
 643 465 662 459 667 458 c 1
 713 414 742 356 742 295 c 0
 742 217 712 136 651 81 c 0
 602 36 543 15 476 2 c 1
 468 -8 l 1
 469 -59 469 -108 470 -159 c 1
 370 -196 l 1
 357 -185 l 1
 361 -129 363 -71 365 -13 c 1
 357 -5 l 1
 144 -5 110 78 110 189 c 0
 110 224 113 259 113 294 c 0
 113 360 106 371 95 381 c 0
 87 388 76 391 65 391 c 0
 47 391 26 380 10 371 c 1
 -3 390 l 1
 42 424 103 471 155 471 c 0
 170 471 185 467 197 457 c 0
 210 446 219 428 219 352 c 0
 219 312 216 271 216 231 c 0
 216 124 251 28 358 28 c 1
 366 36 l 1
 366 266 l 2
 366 390 361 513 358 637 c 1
 464 672 l 1
EndSplineSet
EndChar
StartChar: theta1
Encoding: 977 977 35
Width: 639
Flags: MW
HStem: -8 74<281 334.5> 291 80 633 43<295 361 289.5 371.5>
VStem: 107 106<193 241> 459 89
LayerCount: 2
Fore
SplineSet
13 273 m 1
 0 293 l 1
 49 327 112 370 153 370 c 0
 216 370 213 307 213 237 c 0
 213 149 235 66 327 66 c 0
 376 66 449 98 460 307 c 1
 452 315 l 1
 347 335 l 1
 247 364 175 429 175 521 c 0
 175 607 240 676 339 676 c 0
 383 676 426 661 457 633 c 0
 544 554 548 449 548 351 c 1
 554 342 l 1
 571 342 600 341 612 341 c 1
 612 306 l 1
 583 306 566 306 551 307 c 1
 542 300 l 1
 522 137 406 -8 263 -8 c 0
 123 -8 107 113 107 204 c 0
 107 278 89 291 61 291 c 0
 46 291 28 282 13 273 c 1
461 359 m 1
 461 377 l 2
 461 464 430 633 313 633 c 0
 277 633 243 611 243 565 c 0
 243 458 323 377 454 353 c 1
 461 359 l 1
EndSplineSet
Colour: ff0000
EndChar
StartChar: pi1
Encoding: 982 982 36
Width: 933
Flags: MW
HStem: -11 79 474 69
VStem: 84 96<183 212> 416 106 779 86<200.5 258.5>
LayerCount: 2
Fore
SplineSet
271 381 m 1
 281 367 l 1
 279 364 l 1
 216 334 180 280 180 219 c 0
 180 147 224 65 312 65 c 0
 416 65 419 150 418 235 c 2
 417 314 l 1
 511 346 l 1
 526 330 l 1
 524 298 521 237 521 234 c 0
 523 164 540 60 628 60 c 0
 731 60 779 145 779 227 c 0
 779 290 758 353 709 398 c 0
 639 462 519 473 419 473 c 0
 312 473 181 450 113 375 c 1
 96 389 l 1
 201 531 333 547 475 547 c 0
 730 547 865 456 865 291 c 0
 865 110 721 -11 575 -11 c 0
 516 -11 463 17 439 66 c 1
 428 69 l 1
 379 22 324 -11 255 -11 c 0
 145 -11 84 70 84 162 c 0
 84 262 159 350 271 381 c 1
EndSplineSet
EndChar
StartChar: quoteright
Encoding: 8217 8217 130
Width: 254
Flags: W
HStem: 427 297
VStem: 48 135
LayerCount: 2
Fore
SplineSet
79 394 m 1
 64 408 l 1
 87 444 121 492 121 526 c 0
 121 541 115 558 105 571 c 2
 67 620 l 2
 61 628 57 638 57 648 c 0
 57 669 86 693 107 693 c 0
 146 693 192 606 192 562 c 0
 192 511 126 443 79 394 c 1
EndSplineSet
EndChar
StartChar: fraction
Encoding: 8260 8260 230
Width: 80
Flags: W
HStem: -6 21G<-194 -137.267>
DStem2: -194 27 -150 -6 0.537039 0.843557<0 781.461>
LayerCount: 2
Fore
SplineSet
272 672 m 1
 274 660 l 1
 -150 -6 l 1
 -194 13 l 1
 -194 27 l 1
 226 686 l 1
 238 687 l 1
 272 672 l 1
EndSplineSet
EndChar
StartChar: partialdiff
Encoding: 8706 8706 53
Width: 643
Flags: MW
HStem: -18 41 439 37 625 71<262.5 271>
VStem: 87 118<202.5 258> 444 114<213.5 290>
LayerCount: 2
Fore
SplineSet
114 534 m 1
 91 545 l 1
 105 582 120 620 150 648 c 0
 186 681 237 696 288 696 c 0
 343 696 394 667 432 632 c 0
 529 543 558 402 558 279 c 0
 558 145 495 -18 312 -18 c 0
 249 -18 193 3 149 43 c 0
 101 86 87 164 87 225 c 0
 87 291 104 360 157 408 c 0
 208 455 277 477 349 477 c 0
 356 477 372 476 388 474 c 1
 394 484 l 1
 365 551 314 625 228 625 c 0
 175 625 143 598 114 534 c 1
411 430 m 1
 395 436 377 441 360 441 c 0
 239 441 205 342 205 240 c 0
 205 165 224 21 329 21 c 0
 435 21 444 166 444 261 c 0
 444 319 432 376 411 430 c 1
EndSplineSet
EndChar
StartChar: Delta
Encoding: 8710 8710 1
Width: 783
Flags: MW
HStem: -2 59 679 20<510 510>
VStem: 23 728
LayerCount: 2
Fore
SplineSet
385 669 m 1
 510 699 l 1
 568 478 641 264 750 55 c 1
 751 44 l 1
 628 -7 l 1
 560 -1 257 6 257 6 c 1
 151 6 46 0 26 -1 c 1
 26 0 24 20 23 34 c 1
 150 243 295 483 385 669 c 1
120 67 m 1
 564 55 l 1
 576 64 584 69 584 69 c 1
 516 230 457 404 403 568 c 1
 399 566 390 564 389 564 c 0
 306 400 210 225 120 67 c 1
EndSplineSet
EndChar
StartChar: minus
Encoding: 8722 8722 124
Width: 893
Flags: W
HStem: 231 50<73 818 54 834>
LayerCount: 2
Fore
SplineSet
818 231 m 1
 54 231 l 1
 73 281 l 1
 834 281 l 1
 818 231 l 1
EndSplineSet
EndChar
StartChar: epsilon1
Encoding: 65537 -1 15
Width: 588
Flags: MW
HStem: -7 62<324.5 337.5> 218 44 429 42<288 364>
VStem: 84 116
LayerCount: 2
Fore
SplineSet
443 263 m 1
 427 219 l 1
 393 219 l 2
 320 219 246 218 209 216 c 1
 203 207 l 1
 214 124 271 55 378 55 c 0
 429 55 479 72 518 100 c 1
 527 99 l 1
 539 80 l 1
 472 24 383 -7 292 -7 c 0
 240 -7 185 1 147 36 c 0
 98 80 84 145 84 206 c 0
 84 347 189 471 350 471 c 0
 415 471 477 446 521 403 c 1
 467 339 l 1
 453 342 l 1
 426 391 394 429 334 429 c 0
 242 429 198 345 197 273 c 1
 204 264 l 1
 240 262 278 262 313 262 c 0
 356 262 400 262 443 263 c 1
EndSplineSet
Colour: ff0000
EndChar
